<?xml version="1.0" encoding="UTF-8" standalone="no"?>
<svg
   width="404.87mm"
   height="326.23mm"
   viewBox="0.0 0.0 404.87 326.23"
   version="1.1"
   id="svg33"
   sodipodi:docname="DHSSmallBox.svg"
   inkscape:version="1.3 (0e150ed6c4, 2023-07-21)"
   xmlns:inkscape="http://www.inkscape.org/namespaces/inkscape"
   xmlns:sodipodi="http://sodipodi.sourceforge.net/DTD/sodipodi-0.dtd"
   xmlns="http://www.w3.org/2000/svg"
   xmlns:svg="http://www.w3.org/2000/svg"
   xmlns:rdf="http://www.w3.org/1999/02/22-rdf-syntax-ns#"
   xmlns:cc="http://creativecommons.org/ns#"
   xmlns:dc="http://purl.org/dc/elements/1.1/">
  <defs
     id="defs33" />
  <sodipodi:namedview
     id="namedview33"
     pagecolor="#505050"
     bordercolor="#eeeeee"
     borderopacity="1"
     inkscape:showpageshadow="0"
     inkscape:pageopacity="0"
     inkscape:pagecheckerboard="0"
     inkscape:deskcolor="#505050"
     inkscape:document-units="mm"
     inkscape:zoom="1.013925"
     inkscape:cx="453.18933"
     inkscape:cy="636.14172"
     inkscape:window-width="1920"
     inkscape:window-height="1122"
     inkscape:window-x="-8"
     inkscape:window-y="-8"
     inkscape:window-maximized="1"
     inkscape:current-layer="svg33" />
  <!--
BasedBox - Fully closed box on a base


This box is more of a building block than a finished item.
Use a vector graphics program (like Inkscape) to add holes or adjust the base
plate. The width of the "brim" can also be adjusted with the **edge_width**
 parameter in the **Finger Joints Settings**.
 
See ClosedBox for variant without a base.



Created with Boxes.py (https://festi.info/boxes.py)
Creation date: 2023-11-06 18:09:06
Command line (remove spaces between dashes): boxes BasedBox - -x=177.8 - -y=203.2 - -h=35 - -thickness=6.35
Url: http://www.festi.info/boxes.py/BasedBox?FingerJoint_angle=90.0&FingerJoint_style=rectangular&FingerJoint_surroundingspaces=2.0&FingerJoint_bottom_lip=0.0&FingerJoint_edge_width=1.0&FingerJoint_extra_length=0.0&FingerJoint_finger=2.0&FingerJoint_play=0.0&FingerJoint_space=2.0&FingerJoint_width=1.0&x=177.8&y=203.2&h=35&outside=0&outside=1&thickness=6.35&format=svg&tabs=0.0&qr_code=0&debug=0&labels=0&labels=1&reference=100&inner_corners=loop&burn=0.1&language=en&render=2
Url short: http://www.festi.info/boxes.py/BasedBox?x=177.8&y=203.2&h=35&thickness=6.35
SettingsUrl: http://www.festi.info/boxes.py/BasedBox?FingerJoint_angle=90.0&FingerJoint_style=rectangular&FingerJoint_surroundingspaces=2.0&FingerJoint_bottom_lip=0.0&FingerJoint_edge_width=1.0&FingerJoint_extra_length=0.0&FingerJoint_finger=2.0&FingerJoint_play=0.0&FingerJoint_space=2.0&FingerJoint_width=1.0&x=177.8&y=203.2&h=35&outside=0&outside=1&thickness=6.35&format=svg&tabs=0.0&qr_code=0&debug=0&labels=0&labels=1&reference=100&inner_corners=loop&burn=0.1&language=en&render=2
SettingsUrl short: http://www.festi.info/boxes.py/BasedBox?x=177.8&y=203.2&h=35&thickness=6.35
-->
  <title
     id="title1">BasedBox</title>
  <metadata
     id="metadata1">
    <rdf:RDF>
      <cc:Work>
        <dc:title>Box - BasedBox</dc:title>
        <dc:date>2023-11-06 18:09:06</dc:date>
        <dc:source>http://www.festi.info/boxes.py/BasedBox?FingerJoint_angle=90.0&amp;FingerJoint_style=rectangular&amp;FingerJoint_surroundingspaces=2.0&amp;FingerJoint_bottom_lip=0.0&amp;FingerJoint_edge_width=1.0&amp;FingerJoint_extra_length=0.0&amp;FingerJoint_finger=2.0&amp;FingerJoint_play=0.0&amp;FingerJoint_space=2.0&amp;FingerJoint_width=1.0&amp;x=177.8&amp;y=203.2&amp;h=35&amp;outside=0&amp;outside=1&amp;thickness=6.35&amp;format=svg&amp;tabs=0.0&amp;qr_code=0&amp;debug=0&amp;labels=0&amp;labels=1&amp;reference=100&amp;inner_corners=loop&amp;burn=0.1&amp;language=en&amp;render=2</dc:source>
        <dc:source>http://www.festi.info/boxes.py/BasedBox?x=177.8&amp;y=203.2&amp;h=35&amp;thickness=6.35</dc:source>
        <dc:description>Fully closed box on a base&#10;&#10;This box is more of a building block than a finished item.&#10;Use a vector graphics program (like Inkscape) to add holes or adjust the base&#10;plate. The width of the &quot;brim&quot; can also be adjusted with the **edge_width**&#10; parameter in the **Finger Joints Settings**.&#10; &#10;See ClosedBox for variant without a base.&#10;&#10;&#10;Created with Boxes.py (https://festi.info/boxes.py)&#10;Command line: boxes BasedBox --FingerJoint_angle=90.0 --FingerJoint_style=rectangular --FingerJoint_surroundingspaces=2.0 --FingerJoint_bottom_lip=0.0 --FingerJoint_edge_width=1.0 --FingerJoint_extra_length=0.0 --FingerJoint_finger=2.0 --FingerJoint_play=0.0 --FingerJoint_space=2.0 --FingerJoint_width=1.0 --x=177.8 --y=203.2 --h=35 --outside=0 --outside=1 --thickness=6.35 --format=svg --tabs=0.0 --qr_code=0 --debug=0 --labels=0 --labels=1 --reference=100 --inner_corners=loop --burn=0.1&#10;Command line short: boxes BasedBox --x=177.8 --y=203.2 --h=35 --thickness=6.35&#10;Url: http://www.festi.info/boxes.py/BasedBox?FingerJoint_angle=90.0&amp;FingerJoint_style=rectangular&amp;FingerJoint_surroundingspaces=2.0&amp;FingerJoint_bottom_lip=0.0&amp;FingerJoint_edge_width=1.0&amp;FingerJoint_extra_length=0.0&amp;FingerJoint_finger=2.0&amp;FingerJoint_play=0.0&amp;FingerJoint_space=2.0&amp;FingerJoint_width=1.0&amp;x=177.8&amp;y=203.2&amp;h=35&amp;outside=0&amp;outside=1&amp;thickness=6.35&amp;format=svg&amp;tabs=0.0&amp;qr_code=0&amp;debug=0&amp;labels=0&amp;labels=1&amp;reference=100&amp;inner_corners=loop&amp;burn=0.1&amp;language=en&amp;render=2&#10;Url short: http://www.festi.info/boxes.py/BasedBox?x=177.8&amp;y=203.2&amp;h=35&amp;thickness=6.35&#10;SettingsUrl: http://www.festi.info/boxes.py/BasedBox?FingerJoint_angle=90.0&amp;FingerJoint_style=rectangular&amp;FingerJoint_surroundingspaces=2.0&amp;FingerJoint_bottom_lip=0.0&amp;FingerJoint_edge_width=1.0&amp;FingerJoint_extra_length=0.0&amp;FingerJoint_finger=2.0&amp;FingerJoint_play=0.0&amp;FingerJoint_space=2.0&amp;FingerJoint_width=1.0&amp;x=177.8&amp;y=203.2&amp;h=35&amp;outside=0&amp;outside=1&amp;thickness=6.35&amp;format=svg&amp;tabs=0.0&amp;qr_code=0&amp;debug=0&amp;labels=0&amp;labels=1&amp;reference=100&amp;inner_corners=loop&amp;burn=0.1&amp;language=en&amp;render=2&#10;SettingsUrl short: http://www.festi.info/boxes.py/BasedBox?x=177.8&amp;y=203.2&amp;h=35&amp;thickness=6.35&#10;</dc:description>
      </cc:Work>
    </rdf:RDF>
  </metadata>
  <g
     id="p-1"
     style="fill:none;stroke-linecap:round;stroke-linejoin:round;">
    <text
       transform="matrix( 1.000 0.000 0.000 1.000 99.300 283.350 )"
       style="font-family: sans-serif ; font-weight: normal; font-style: normal; fill: rgb(255,0,0)"
       font-size="4px"
       text-anchor="middle"
       dominant-baseline="hanging"
       id="text2">Wall 1</text>
    <path
       d="M 16.750 296.500 H 29.350 C 29.450 296.500 29.350 296.400 29.350 296.500 V 302.750 C 29.350 302.805 29.395 302.850 29.450 302.850 H 42.150 C 42.205 302.850 42.250 302.805 42.250 302.750 V 296.500 C 42.250 296.400 42.150 296.500 42.250 296.500 H 54.750 C 54.850 296.500 54.750 296.400 54.750 296.500 V 302.750 C 54.750 302.805 54.795 302.850 54.850 302.850 H 67.550 C 67.605 302.850 67.650 302.805 67.650 302.750 V 296.500 C 67.650 296.400 67.550 296.500 67.650 296.500 H 80.150 C 80.250 296.500 80.150 296.400 80.150 296.500 V 302.750 C 80.150 302.805 80.195 302.850 80.250 302.850 H 92.950 C 93.005 302.850 93.050 302.805 93.050 302.750 V 296.500 C 93.050 296.400 92.950 296.500 93.050 296.500 H 105.550 C 105.650 296.500 105.550 296.400 105.550 296.500 V 302.750 C 105.550 302.805 105.595 302.850 105.650 302.850 H 118.350 C 118.405 302.850 118.450 302.805 118.450 302.750 V 296.500 C 118.450 296.400 118.350 296.500 118.450 296.500 H 130.950 C 131.050 296.500 130.950 296.400 130.950 296.500 V 302.750 C 130.950 302.805 130.995 302.850 131.050 302.850 H 143.750 C 143.805 302.850 143.850 302.805 143.850 302.750 V 296.500 C 143.850 296.400 143.750 296.500 143.850 296.500 H 156.350 C 156.450 296.500 156.350 296.400 156.350 296.500 V 302.750 C 156.350 302.805 156.395 302.850 156.450 302.850 H 169.150 C 169.205 302.850 169.250 302.805 169.250 302.750 V 296.500 C 169.250 296.400 169.150 296.500 169.250 296.500 H 181.850 H 188.200 C 188.255 296.500 188.300 296.455 188.300 296.400 V 291.600 C 188.300 291.545 188.255 291.500 188.200 291.500 H 181.950 C 181.850 291.500 181.950 291.600 181.950 291.500 V 279.000 C 181.950 278.900 181.850 279.000 181.950 279.000 H 188.200 C 188.255 279.000 188.300 278.955 188.300 278.900 V 274.100 V 267.750 C 188.300 267.695 188.255 267.650 188.200 267.650 H 181.850 H 169.150 C 169.095 267.650 169.050 267.695 169.050 267.750 V 274.000 C 169.050 274.100 169.150 274.000 169.050 274.000 H 156.550 C 156.450 274.000 156.550 274.100 156.550 274.000 V 267.750 C 156.550 267.695 156.505 267.650 156.450 267.650 H 143.750 C 143.695 267.650 143.650 267.695 143.650 267.750 V 274.000 C 143.650 274.100 143.750 274.000 143.650 274.000 H 131.150 C 131.050 274.000 131.150 274.100 131.150 274.000 V 267.750 C 131.150 267.695 131.105 267.650 131.050 267.650 H 118.350 C 118.295 267.650 118.250 267.695 118.250 267.750 V 274.000 C 118.250 274.100 118.350 274.000 118.250 274.000 H 105.750 C 105.650 274.000 105.750 274.100 105.750 274.000 V 267.750 C 105.750 267.695 105.705 267.650 105.650 267.650 H 92.950 C 92.895 267.650 92.850 267.695 92.850 267.750 V 274.000 C 92.850 274.100 92.950 274.000 92.850 274.000 H 80.350 C 80.250 274.000 80.350 274.100 80.350 274.000 V 267.750 C 80.350 267.695 80.305 267.650 80.250 267.650 H 67.550 C 67.495 267.650 67.450 267.695 67.450 267.750 V 274.000 C 67.450 274.100 67.550 274.000 67.450 274.000 H 54.950 C 54.850 274.000 54.950 274.100 54.950 274.000 V 267.750 C 54.950 267.695 54.905 267.650 54.850 267.650 H 42.150 C 42.095 267.650 42.050 267.695 42.050 267.750 V 274.000 C 42.050 274.100 42.150 274.000 42.050 274.000 H 29.550 C 29.450 274.000 29.550 274.100 29.550 274.000 V 267.750 C 29.550 267.695 29.505 267.650 29.450 267.650 H 16.750 H 10.400 C 10.345 267.650 10.300 267.695 10.300 267.750 V 274.100 V 278.900 C 10.300 278.955 10.345 279.000 10.400 279.000 H 16.650 C 16.750 279.000 16.650 278.900 16.650 279.000 V 291.500 C 16.650 291.600 16.750 291.500 16.650 291.500 H 10.400 C 10.345 291.500 10.300 291.545 10.300 291.600 V 296.400 C 10.300 296.455 10.345 296.500 10.400 296.500 H 16.750"
       stroke="rgb(0,0,0)"
       stroke-width="0.20"
       id="path2" />
  </g>
  <g
     id="p-2"
     style="fill:none;stroke-linecap:round;stroke-linejoin:round;">
    <text
       transform="matrix( 1.000 0.000 0.000 1.000 293.175 283.350 )"
       style="font-family: sans-serif ; font-weight: normal; font-style: normal; fill: rgb(255,0,0)"
       font-size="4px"
       text-anchor="middle"
       dominant-baseline="hanging"
       id="text3">Wall 2</text>
    <path
       d="M 197.925 296.500 H 210.525 C 210.625 296.500 210.525 296.400 210.525 296.500 V 302.750 C 210.525 302.805 210.570 302.850 210.625 302.850 H 223.325 C 223.380 302.850 223.425 302.805 223.425 302.750 V 296.500 C 223.425 296.400 223.325 296.500 223.425 296.500 H 235.925 C 236.025 296.500 235.925 296.400 235.925 296.500 V 302.750 C 235.925 302.805 235.970 302.850 236.025 302.850 H 248.725 C 248.780 302.850 248.825 302.805 248.825 302.750 V 296.500 C 248.825 296.400 248.725 296.500 248.825 296.500 H 261.325 C 261.425 296.500 261.325 296.400 261.325 296.500 V 302.750 C 261.325 302.805 261.370 302.850 261.425 302.850 H 274.125 C 274.180 302.850 274.225 302.805 274.225 302.750 V 296.500 C 274.225 296.400 274.125 296.500 274.225 296.500 H 286.725 C 286.825 296.500 286.725 296.400 286.725 296.500 V 302.750 C 286.725 302.805 286.770 302.850 286.825 302.850 H 299.525 C 299.580 302.850 299.625 302.805 299.625 302.750 V 296.500 C 299.625 296.400 299.525 296.500 299.625 296.500 H 312.125 C 312.225 296.500 312.125 296.400 312.125 296.500 V 302.750 C 312.125 302.805 312.170 302.850 312.225 302.850 H 324.925 C 324.980 302.850 325.025 302.805 325.025 302.750 V 296.500 C 325.025 296.400 324.925 296.500 325.025 296.500 H 337.525 C 337.625 296.500 337.525 296.400 337.525 296.500 V 302.750 C 337.525 302.805 337.570 302.850 337.625 302.850 H 350.325 C 350.380 302.850 350.425 302.805 350.425 302.750 V 296.500 C 350.425 296.400 350.325 296.500 350.425 296.500 H 362.925 C 363.025 296.500 362.925 296.400 362.925 296.500 V 302.750 C 362.925 302.805 362.970 302.850 363.025 302.850 H 375.725 C 375.780 302.850 375.825 302.805 375.825 302.750 V 296.500 C 375.825 296.400 375.725 296.500 375.825 296.500 H 388.425 C 388.480 296.500 388.525 296.455 388.525 296.400 V 291.700 C 388.525 291.600 388.425 291.700 388.525 291.700 H 394.775 C 394.830 291.700 394.875 291.655 394.875 291.600 V 278.900 C 394.875 278.845 394.830 278.800 394.775 278.800 H 388.525 C 388.425 278.800 388.525 278.900 388.525 278.800 V 274.100 V 267.750 C 388.525 267.695 388.480 267.650 388.425 267.650 H 375.725 C 375.670 267.650 375.625 267.695 375.625 267.750 V 274.000 C 375.625 274.100 375.725 274.000 375.625 274.000 H 363.125 C 363.025 274.000 363.125 274.100 363.125 274.000 V 267.750 C 363.125 267.695 363.080 267.650 363.025 267.650 H 350.325 C 350.270 267.650 350.225 267.695 350.225 267.750 V 274.000 C 350.225 274.100 350.325 274.000 350.225 274.000 H 337.725 C 337.625 274.000 337.725 274.100 337.725 274.000 V 267.750 C 337.725 267.695 337.680 267.650 337.625 267.650 H 324.925 C 324.870 267.650 324.825 267.695 324.825 267.750 V 274.000 C 324.825 274.100 324.925 274.000 324.825 274.000 H 312.325 C 312.225 274.000 312.325 274.100 312.325 274.000 V 267.750 C 312.325 267.695 312.280 267.650 312.225 267.650 H 299.525 C 299.470 267.650 299.425 267.695 299.425 267.750 V 274.000 C 299.425 274.100 299.525 274.000 299.425 274.000 H 286.925 C 286.825 274.000 286.925 274.100 286.925 274.000 V 267.750 C 286.925 267.695 286.880 267.650 286.825 267.650 H 274.125 C 274.070 267.650 274.025 267.695 274.025 267.750 V 274.000 C 274.025 274.100 274.125 274.000 274.025 274.000 H 261.525 C 261.425 274.000 261.525 274.100 261.525 274.000 V 267.750 C 261.525 267.695 261.480 267.650 261.425 267.650 H 248.725 C 248.670 267.650 248.625 267.695 248.625 267.750 V 274.000 C 248.625 274.100 248.725 274.000 248.625 274.000 H 236.125 C 236.025 274.000 236.125 274.100 236.125 274.000 V 267.750 C 236.125 267.695 236.080 267.650 236.025 267.650 H 223.325 C 223.270 267.650 223.225 267.695 223.225 267.750 V 274.000 C 223.225 274.100 223.325 274.000 223.225 274.000 H 210.725 C 210.625 274.000 210.725 274.100 210.725 274.000 V 267.750 C 210.725 267.695 210.680 267.650 210.625 267.650 H 197.925 C 197.870 267.650 197.825 267.695 197.825 267.750 V 274.100 V 278.800 C 197.825 278.900 197.925 278.800 197.825 278.800 H 191.575 C 191.520 278.800 191.475 278.845 191.475 278.900 V 291.600 C 191.475 291.655 191.520 291.700 191.575 291.700 H 197.825 C 197.925 291.700 197.825 291.600 197.825 291.700 V 296.400 C 197.825 296.455 197.870 296.500 197.925 296.500"
       stroke="rgb(0,0,0)"
       stroke-width="0.20"
       id="path3" />
  </g>
  <g
     id="p-3"
     style="fill:none;stroke-linecap:round;stroke-linejoin:round;">
    <text
       transform="matrix( 1.000 0.000 0.000 1.000 293.175 244.975 )"
       style="font-family: sans-serif ; font-weight: normal; font-style: normal; fill: rgb(255,0,0)"
       font-size="4px"
       text-anchor="middle"
       dominant-baseline="hanging"
       id="text4">Wall 4</text>
    <path
       d="M 197.925 258.125 H 210.525 C 210.625 258.125 210.525 258.025 210.525 258.125 V 264.375 C 210.525 264.430 210.570 264.475 210.625 264.475 H 223.325 C 223.380 264.475 223.425 264.430 223.425 264.375 V 258.125 C 223.425 258.025 223.325 258.125 223.425 258.125 H 235.925 C 236.025 258.125 235.925 258.025 235.925 258.125 V 264.375 C 235.925 264.430 235.970 264.475 236.025 264.475 H 248.725 C 248.780 264.475 248.825 264.430 248.825 264.375 V 258.125 C 248.825 258.025 248.725 258.125 248.825 258.125 H 261.325 C 261.425 258.125 261.325 258.025 261.325 258.125 V 264.375 C 261.325 264.430 261.370 264.475 261.425 264.475 H 274.125 C 274.180 264.475 274.225 264.430 274.225 264.375 V 258.125 C 274.225 258.025 274.125 258.125 274.225 258.125 H 286.725 C 286.825 258.125 286.725 258.025 286.725 258.125 V 264.375 C 286.725 264.430 286.770 264.475 286.825 264.475 H 299.525 C 299.580 264.475 299.625 264.430 299.625 264.375 V 258.125 C 299.625 258.025 299.525 258.125 299.625 258.125 H 312.125 C 312.225 258.125 312.125 258.025 312.125 258.125 V 264.375 C 312.125 264.430 312.170 264.475 312.225 264.475 H 324.925 C 324.980 264.475 325.025 264.430 325.025 264.375 V 258.125 C 325.025 258.025 324.925 258.125 325.025 258.125 H 337.525 C 337.625 258.125 337.525 258.025 337.525 258.125 V 264.375 C 337.525 264.430 337.570 264.475 337.625 264.475 H 350.325 C 350.380 264.475 350.425 264.430 350.425 264.375 V 258.125 C 350.425 258.025 350.325 258.125 350.425 258.125 H 362.925 C 363.025 258.125 362.925 258.025 362.925 258.125 V 264.375 C 362.925 264.430 362.970 264.475 363.025 264.475 H 375.725 C 375.780 264.475 375.825 264.430 375.825 264.375 V 258.125 C 375.825 258.025 375.725 258.125 375.825 258.125 H 388.425 C 388.480 258.125 388.525 258.080 388.525 258.025 V 253.325 C 388.525 253.225 388.425 253.325 388.525 253.325 H 394.775 C 394.830 253.325 394.875 253.280 394.875 253.225 V 240.525 C 394.875 240.470 394.830 240.425 394.775 240.425 H 388.525 C 388.425 240.425 388.525 240.525 388.525 240.425 V 235.725 V 229.375 C 388.525 229.320 388.480 229.275 388.425 229.275 H 375.725 C 375.670 229.275 375.625 229.320 375.625 229.375 V 235.625 C 375.625 235.725 375.725 235.625 375.625 235.625 H 363.125 C 363.025 235.625 363.125 235.725 363.125 235.625 V 229.375 C 363.125 229.320 363.080 229.275 363.025 229.275 H 350.325 C 350.270 229.275 350.225 229.320 350.225 229.375 V 235.625 C 350.225 235.725 350.325 235.625 350.225 235.625 H 337.725 C 337.625 235.625 337.725 235.725 337.725 235.625 V 229.375 C 337.725 229.320 337.680 229.275 337.625 229.275 H 324.925 C 324.870 229.275 324.825 229.320 324.825 229.375 V 235.625 C 324.825 235.725 324.925 235.625 324.825 235.625 H 312.325 C 312.225 235.625 312.325 235.725 312.325 235.625 V 229.375 C 312.325 229.320 312.280 229.275 312.225 229.275 H 299.525 C 299.470 229.275 299.425 229.320 299.425 229.375 V 235.625 C 299.425 235.725 299.525 235.625 299.425 235.625 H 286.925 C 286.825 235.625 286.925 235.725 286.925 235.625 V 229.375 C 286.925 229.320 286.880 229.275 286.825 229.275 H 274.125 C 274.070 229.275 274.025 229.320 274.025 229.375 V 235.625 C 274.025 235.725 274.125 235.625 274.025 235.625 H 261.525 C 261.425 235.625 261.525 235.725 261.525 235.625 V 229.375 C 261.525 229.320 261.480 229.275 261.425 229.275 H 248.725 C 248.670 229.275 248.625 229.320 248.625 229.375 V 235.625 C 248.625 235.725 248.725 235.625 248.625 235.625 H 236.125 C 236.025 235.625 236.125 235.725 236.125 235.625 V 229.375 C 236.125 229.320 236.080 229.275 236.025 229.275 H 223.325 C 223.270 229.275 223.225 229.320 223.225 229.375 V 235.625 C 223.225 235.725 223.325 235.625 223.225 235.625 H 210.725 C 210.625 235.625 210.725 235.725 210.725 235.625 V 229.375 C 210.725 229.320 210.680 229.275 210.625 229.275 H 197.925 C 197.870 229.275 197.825 229.320 197.825 229.375 V 235.725 V 240.425 C 197.825 240.525 197.925 240.425 197.825 240.425 H 191.575 C 191.520 240.425 191.475 240.470 191.475 240.525 V 253.225 C 191.475 253.280 191.520 253.325 191.575 253.325 H 197.825 C 197.925 253.325 197.825 253.225 197.825 253.325 V 258.025 C 197.825 258.080 197.870 258.125 197.925 258.125"
       stroke="rgb(0,0,0)"
       stroke-width="0.20"
       id="path4" />
  </g>
  <g
     id="p-4"
     style="fill:none;stroke-linecap:round;stroke-linejoin:round;">
    <text
       transform="matrix( 1.000 0.000 0.000 1.000 99.300 244.975 )"
       style="font-family: sans-serif ; font-weight: normal; font-style: normal; fill: rgb(255,0,0)"
       font-size="4px"
       text-anchor="middle"
       dominant-baseline="hanging"
       id="text5">Wall 3</text>
    <path
       d="M 16.750 258.125 H 29.350 C 29.450 258.125 29.350 258.025 29.350 258.125 V 264.375 C 29.350 264.430 29.395 264.475 29.450 264.475 H 42.150 C 42.205 264.475 42.250 264.430 42.250 264.375 V 258.125 C 42.250 258.025 42.150 258.125 42.250 258.125 H 54.750 C 54.850 258.125 54.750 258.025 54.750 258.125 V 264.375 C 54.750 264.430 54.795 264.475 54.850 264.475 H 67.550 C 67.605 264.475 67.650 264.430 67.650 264.375 V 258.125 C 67.650 258.025 67.550 258.125 67.650 258.125 H 80.150 C 80.250 258.125 80.150 258.025 80.150 258.125 V 264.375 C 80.150 264.430 80.195 264.475 80.250 264.475 H 92.950 C 93.005 264.475 93.050 264.430 93.050 264.375 V 258.125 C 93.050 258.025 92.950 258.125 93.050 258.125 H 105.550 C 105.650 258.125 105.550 258.025 105.550 258.125 V 264.375 C 105.550 264.430 105.595 264.475 105.650 264.475 H 118.350 C 118.405 264.475 118.450 264.430 118.450 264.375 V 258.125 C 118.450 258.025 118.350 258.125 118.450 258.125 H 130.950 C 131.050 258.125 130.950 258.025 130.950 258.125 V 264.375 C 130.950 264.430 130.995 264.475 131.050 264.475 H 143.750 C 143.805 264.475 143.850 264.430 143.850 264.375 V 258.125 C 143.850 258.025 143.750 258.125 143.850 258.125 H 156.350 C 156.450 258.125 156.350 258.025 156.350 258.125 V 264.375 C 156.350 264.430 156.395 264.475 156.450 264.475 H 169.150 C 169.205 264.475 169.250 264.430 169.250 264.375 V 258.125 C 169.250 258.025 169.150 258.125 169.250 258.125 H 181.850 H 188.200 C 188.255 258.125 188.300 258.080 188.300 258.025 V 253.225 C 188.300 253.170 188.255 253.125 188.200 253.125 H 181.950 C 181.850 253.125 181.950 253.225 181.950 253.125 V 240.625 C 181.950 240.525 181.850 240.625 181.950 240.625 H 188.200 C 188.255 240.625 188.300 240.580 188.300 240.525 V 235.725 V 229.375 C 188.300 229.320 188.255 229.275 188.200 229.275 H 181.850 H 169.150 C 169.095 229.275 169.050 229.320 169.050 229.375 V 235.625 C 169.050 235.725 169.150 235.625 169.050 235.625 H 156.550 C 156.450 235.625 156.550 235.725 156.550 235.625 V 229.375 C 156.550 229.320 156.505 229.275 156.450 229.275 H 143.750 C 143.695 229.275 143.650 229.320 143.650 229.375 V 235.625 C 143.650 235.725 143.750 235.625 143.650 235.625 H 131.150 C 131.050 235.625 131.150 235.725 131.150 235.625 V 229.375 C 131.150 229.320 131.105 229.275 131.050 229.275 H 118.350 C 118.295 229.275 118.250 229.320 118.250 229.375 V 235.625 C 118.250 235.725 118.350 235.625 118.250 235.625 H 105.750 C 105.650 235.625 105.750 235.725 105.750 235.625 V 229.375 C 105.750 229.320 105.705 229.275 105.650 229.275 H 92.950 C 92.895 229.275 92.850 229.320 92.850 229.375 V 235.625 C 92.850 235.725 92.950 235.625 92.850 235.625 H 80.350 C 80.250 235.625 80.350 235.725 80.350 235.625 V 229.375 C 80.350 229.320 80.305 229.275 80.250 229.275 H 67.550 C 67.495 229.275 67.450 229.320 67.450 229.375 V 235.625 C 67.450 235.725 67.550 235.625 67.450 235.625 H 54.950 C 54.850 235.625 54.950 235.725 54.950 235.625 V 229.375 C 54.950 229.320 54.905 229.275 54.850 229.275 H 42.150 C 42.095 229.275 42.050 229.320 42.050 229.375 V 235.625 C 42.050 235.725 42.150 235.625 42.050 235.625 H 29.550 C 29.450 235.625 29.550 235.725 29.550 235.625 V 229.375 C 29.550 229.320 29.505 229.275 29.450 229.275 H 16.750 H 10.400 C 10.345 229.275 10.300 229.320 10.300 229.375 V 235.725 V 240.525 C 10.300 240.580 10.345 240.625 10.400 240.625 H 16.650 C 16.750 240.625 16.650 240.525 16.650 240.625 V 253.125 C 16.650 253.225 16.750 253.125 16.650 253.125 H 10.400 C 10.345 253.125 10.300 253.170 10.300 253.225 V 258.025 C 10.300 258.080 10.345 258.125 10.400 258.125 H 16.750"
       stroke="rgb(0,0,0)"
       stroke-width="0.20"
       id="path5" />
  </g>
  <text
     style="font-style:normal;font-weight:normal;font-family:sans-serif;fill:#ff0000;stroke-linecap:round;stroke-linejoin:round"
     font-size="4px"
     text-anchor="middle"
     dominant-baseline="hanging"
     id="text6"
     x="99.300003"
     y="122.5">Top</text>
  <g
     id="p-6"
     style="fill:none;stroke-linecap:round;stroke-linejoin:round;">
    <path
       d="M 223.325 219.550 H 217.075 C 216.975 219.550 217.075 219.650 217.075 219.550 V 213.400 C 217.075 213.300 216.975 213.400 217.075 213.400 H 229.575 C 229.675 213.400 229.575 213.300 229.575 213.400 V 219.550 C 229.575 219.650 229.675 219.550 229.575 219.550 H 223.325 Z"
       stroke="rgb(0,0,255)"
       stroke-width="0.20"
       id="path7" />
    <path
       d="M 248.725 219.550 H 242.475 C 242.375 219.550 242.475 219.650 242.475 219.550 V 213.400 C 242.475 213.300 242.375 213.400 242.475 213.400 H 254.975 C 255.075 213.400 254.975 213.300 254.975 213.400 V 219.550 C 254.975 219.650 255.075 219.550 254.975 219.550 H 248.725 Z"
       stroke="rgb(0,0,255)"
       stroke-width="0.20"
       id="path8" />
    <path
       d="M 274.125 219.550 H 267.875 C 267.775 219.550 267.875 219.650 267.875 219.550 V 213.400 C 267.875 213.300 267.775 213.400 267.875 213.400 H 280.375 C 280.475 213.400 280.375 213.300 280.375 213.400 V 219.550 C 280.375 219.650 280.475 219.550 280.375 219.550 H 274.125 Z"
       stroke="rgb(0,0,255)"
       stroke-width="0.20"
       id="path9" />
    <path
       d="M 299.525 219.550 H 293.275 C 293.175 219.550 293.275 219.650 293.275 219.550 V 213.400 C 293.275 213.300 293.175 213.400 293.275 213.400 H 305.775 C 305.875 213.400 305.775 213.300 305.775 213.400 V 219.550 C 305.775 219.650 305.875 219.550 305.775 219.550 H 299.525 Z"
       stroke="rgb(0,0,255)"
       stroke-width="0.20"
       id="path10" />
    <path
       d="M 324.925 219.550 H 318.675 C 318.575 219.550 318.675 219.650 318.675 219.550 V 213.400 C 318.675 213.300 318.575 213.400 318.675 213.400 H 331.175 C 331.275 213.400 331.175 213.300 331.175 213.400 V 219.550 C 331.175 219.650 331.275 219.550 331.175 219.550 H 324.925 Z"
       stroke="rgb(0,0,255)"
       stroke-width="0.20"
       id="path11" />
    <path
       d="M 350.325 219.550 H 344.075 C 343.975 219.550 344.075 219.650 344.075 219.550 V 213.400 C 344.075 213.300 343.975 213.400 344.075 213.400 H 356.575 C 356.675 213.400 356.575 213.300 356.575 213.400 V 219.550 C 356.575 219.650 356.675 219.550 356.575 219.550 H 350.325 Z"
       stroke="rgb(0,0,255)"
       stroke-width="0.20"
       id="path12" />
    <text
       transform="matrix( 1.000 0.000 0.000 1.000 286.825 116.150 )"
       style="font-family: sans-serif ; font-weight: normal; font-style: normal; fill: rgb(255,0,0)"
       font-size="4px"
       text-anchor="middle"
       dominant-baseline="hanging"
       id="text12">Base</text>
    <path
       d="M 204.275 226.100 H 369.375 H 382.075 C 382.130 226.100 382.175 226.055 382.175 226.000 V 213.300 V 22.800 V 10.100 C 382.175 10.045 382.130 10.000 382.075 10.000 H 369.375 H 204.275 H 191.575 C 191.520 10.000 191.475 10.045 191.475 10.100 V 22.800 V 213.300 V 226.000 C 191.475 226.055 191.520 226.100 191.575 226.100 H 204.275"
       stroke="rgb(0,0,0)"
       stroke-width="0.20"
       id="path13" />
    <path
       d="M 375.625 194.250 V 200.500 C 375.625 200.600 375.725 200.500 375.625 200.500 H 369.475 C 369.375 200.500 369.475 200.600 369.475 200.500 V 188.000 C 369.475 187.900 369.375 188.000 369.475 188.000 H 375.625 C 375.725 188.000 375.625 187.900 375.625 188.000 V 194.250 Z"
       stroke="rgb(0,0,255)"
       stroke-width="0.20"
       id="path14" />
    <path
       d="M 375.625 168.850 V 175.100 C 375.625 175.200 375.725 175.100 375.625 175.100 H 369.475 C 369.375 175.100 369.475 175.200 369.475 175.100 V 162.600 C 369.475 162.500 369.375 162.600 369.475 162.600 H 375.625 C 375.725 162.600 375.625 162.500 375.625 162.600 V 168.850 Z"
       stroke="rgb(0,0,255)"
       stroke-width="0.20"
       id="path15" />
    <path
       d="M 375.625 143.450 V 149.700 C 375.625 149.800 375.725 149.700 375.625 149.700 H 369.475 C 369.375 149.700 369.475 149.800 369.475 149.700 V 137.200 C 369.475 137.100 369.375 137.200 369.475 137.200 H 375.625 C 375.725 137.200 375.625 137.100 375.625 137.200 V 143.450 Z"
       stroke="rgb(0,0,255)"
       stroke-width="0.20"
       id="path16" />
    <path
       d="M 375.625 118.050 V 124.300 C 375.625 124.400 375.725 124.300 375.625 124.300 H 369.475 C 369.375 124.300 369.475 124.400 369.475 124.300 V 111.800 C 369.475 111.700 369.375 111.800 369.475 111.800 H 375.625 C 375.725 111.800 375.625 111.700 375.625 111.800 V 118.050 Z"
       stroke="rgb(0,0,255)"
       stroke-width="0.20"
       id="path17" />
    <path
       d="M 375.625 92.650 V 98.900 C 375.625 99.000 375.725 98.900 375.625 98.900 H 369.475 C 369.375 98.900 369.475 99.000 369.475 98.900 V 86.400 C 369.475 86.300 369.375 86.400 369.475 86.400 H 375.625 C 375.725 86.400 375.625 86.300 375.625 86.400 V 92.650 Z"
       stroke="rgb(0,0,255)"
       stroke-width="0.20"
       id="path18" />
    <path
       d="M 375.625 67.250 V 73.500 C 375.625 73.600 375.725 73.500 375.625 73.500 H 369.475 C 369.375 73.500 369.475 73.600 369.475 73.500 V 61.000 C 369.475 60.900 369.375 61.000 369.475 61.000 H 375.625 C 375.725 61.000 375.625 60.900 375.625 61.000 V 67.250 Z"
       stroke="rgb(0,0,255)"
       stroke-width="0.20"
       id="path19" />
    <path
       d="M 375.625 41.850 V 48.100 C 375.625 48.200 375.725 48.100 375.625 48.100 H 369.475 C 369.375 48.100 369.475 48.200 369.475 48.100 V 35.600 C 369.475 35.500 369.375 35.600 369.475 35.600 H 375.625 C 375.725 35.600 375.625 35.500 375.625 35.600 V 41.850 Z"
       stroke="rgb(0,0,255)"
       stroke-width="0.20"
       id="path20" />
    <path
       d="M 350.325 16.550 H 356.575 C 356.675 16.550 356.575 16.450 356.575 16.550 V 22.700 C 356.575 22.800 356.675 22.700 356.575 22.700 H 344.075 C 343.975 22.700 344.075 22.800 344.075 22.700 V 16.550 C 344.075 16.450 343.975 16.550 344.075 16.550 H 350.325 Z"
       stroke="rgb(0,0,255)"
       stroke-width="0.20"
       id="path21" />
    <path
       d="M 324.925 16.550 H 331.175 C 331.275 16.550 331.175 16.450 331.175 16.550 V 22.700 C 331.175 22.800 331.275 22.700 331.175 22.700 H 318.675 C 318.575 22.700 318.675 22.800 318.675 22.700 V 16.550 C 318.675 16.450 318.575 16.550 318.675 16.550 H 324.925 Z"
       stroke="rgb(0,0,255)"
       stroke-width="0.20"
       id="path22" />
    <path
       d="M 299.525 16.550 H 305.775 C 305.875 16.550 305.775 16.450 305.775 16.550 V 22.700 C 305.775 22.800 305.875 22.700 305.775 22.700 H 293.275 C 293.175 22.700 293.275 22.800 293.275 22.700 V 16.550 C 293.275 16.450 293.175 16.550 293.275 16.550 H 299.525 Z"
       stroke="rgb(0,0,255)"
       stroke-width="0.20"
       id="path23" />
    <path
       d="M 274.125 16.550 H 280.375 C 280.475 16.550 280.375 16.450 280.375 16.550 V 22.700 C 280.375 22.800 280.475 22.700 280.375 22.700 H 267.875 C 267.775 22.700 267.875 22.800 267.875 22.700 V 16.550 C 267.875 16.450 267.775 16.550 267.875 16.550 H 274.125 Z"
       stroke="rgb(0,0,255)"
       stroke-width="0.20"
       id="path24" />
    <path
       d="M 248.725 16.550 H 254.975 C 255.075 16.550 254.975 16.450 254.975 16.550 V 22.700 C 254.975 22.800 255.075 22.700 254.975 22.700 H 242.475 C 242.375 22.700 242.475 22.800 242.475 22.700 V 16.550 C 242.475 16.450 242.375 16.550 242.475 16.550 H 248.725 Z"
       stroke="rgb(0,0,255)"
       stroke-width="0.20"
       id="path25" />
    <path
       d="M 223.325 16.550 H 229.575 C 229.675 16.550 229.575 16.450 229.575 16.550 V 22.700 C 229.575 22.800 229.675 22.700 229.575 22.700 H 217.075 C 216.975 22.700 217.075 22.800 217.075 22.700 V 16.550 C 217.075 16.450 216.975 16.550 217.075 16.550 H 223.325 Z"
       stroke="rgb(0,0,255)"
       stroke-width="0.20"
       id="path26" />
    <path
       d="M 198.025 41.850 V 35.600 C 198.025 35.500 197.925 35.600 198.025 35.600 H 204.175 C 204.275 35.600 204.175 35.500 204.175 35.600 V 48.100 C 204.175 48.200 204.275 48.100 204.175 48.100 H 198.025 C 197.925 48.100 198.025 48.200 198.025 48.100 V 41.850 Z"
       stroke="rgb(0,0,255)"
       stroke-width="0.20"
       id="path27" />
    <path
       d="M 198.025 67.250 V 61.000 C 198.025 60.900 197.925 61.000 198.025 61.000 H 204.175 C 204.275 61.000 204.175 60.900 204.175 61.000 V 73.500 C 204.175 73.600 204.275 73.500 204.175 73.500 H 198.025 C 197.925 73.500 198.025 73.600 198.025 73.500 V 67.250 Z"
       stroke="rgb(0,0,255)"
       stroke-width="0.20"
       id="path28" />
    <path
       d="M 198.025 92.650 V 86.400 C 198.025 86.300 197.925 86.400 198.025 86.400 H 204.175 C 204.275 86.400 204.175 86.300 204.175 86.400 V 98.900 C 204.175 99.000 204.275 98.900 204.175 98.900 H 198.025 C 197.925 98.900 198.025 99.000 198.025 98.900 V 92.650 Z"
       stroke="rgb(0,0,255)"
       stroke-width="0.20"
       id="path29" />
    <path
       d="M 198.025 118.050 V 111.800 C 198.025 111.700 197.925 111.800 198.025 111.800 H 204.175 C 204.275 111.800 204.175 111.700 204.175 111.800 V 124.300 C 204.175 124.400 204.275 124.300 204.175 124.300 H 198.025 C 197.925 124.300 198.025 124.400 198.025 124.300 V 118.050 Z"
       stroke="rgb(0,0,255)"
       stroke-width="0.20"
       id="path30" />
    <path
       d="M 198.025 143.450 V 137.200 C 198.025 137.100 197.925 137.200 198.025 137.200 H 204.175 C 204.275 137.200 204.175 137.100 204.175 137.200 V 149.700 C 204.175 149.800 204.275 149.700 204.175 149.700 H 198.025 C 197.925 149.700 198.025 149.800 198.025 149.700 V 143.450 Z"
       stroke="rgb(0,0,255)"
       stroke-width="0.20"
       id="path31" />
    <path
       d="M 198.025 168.850 V 162.600 C 198.025 162.500 197.925 162.600 198.025 162.600 H 204.175 C 204.275 162.600 204.175 162.500 204.175 162.600 V 175.100 C 204.175 175.200 204.275 175.100 204.175 175.100 H 198.025 C 197.925 175.100 198.025 175.200 198.025 175.100 V 168.850 Z"
       stroke="rgb(0,0,255)"
       stroke-width="0.20"
       id="path32" />
    <path
       d="M 198.025 194.250 V 188.000 C 198.025 187.900 197.925 188.000 198.025 188.000 H 204.175 C 204.275 188.000 204.175 187.900 204.175 188.000 V 200.500 C 204.175 200.600 204.275 200.500 204.175 200.500 H 198.025 C 197.925 200.500 198.025 200.600 198.025 200.500 V 194.250 Z"
       stroke="rgb(0,0,255)"
       stroke-width="0.20"
       id="path33" />
  </g>
  <rect
     style="fill:none;stroke-width:0.2;stroke:#000000;stroke-opacity:1;stroke-dasharray:none"
     id="rect33"
     width="165.31999"
     height="190.79359"
     x="16.652861"
     y="28.923389" />
</svg>
