<?xml version="1.0" encoding="UTF-8" standalone="no"?>
<svg
   width="582.67mm"
   height="479.93mm"
   viewBox="0.0 0.0 582.67 479.93"
   version="1.1"
   id="svg45"
   sodipodi:docname="DHSBigBox2.svg"
   inkscape:version="1.3.1 (91b66b0783, 2023-11-16)"
   xmlns:inkscape="http://www.inkscape.org/namespaces/inkscape"
   xmlns:sodipodi="http://sodipodi.sourceforge.net/DTD/sodipodi-0.dtd"
   xmlns="http://www.w3.org/2000/svg"
   xmlns:svg="http://www.w3.org/2000/svg"
   xmlns:rdf="http://www.w3.org/1999/02/22-rdf-syntax-ns#"
   xmlns:cc="http://creativecommons.org/ns#"
   xmlns:dc="http://purl.org/dc/elements/1.1/">
  <defs
     id="defs45" />
  <sodipodi:namedview
     id="namedview45"
     pagecolor="#505050"
     bordercolor="#eeeeee"
     borderopacity="1"
     inkscape:showpageshadow="0"
     inkscape:pageopacity="0"
     inkscape:pagecheckerboard="0"
     inkscape:deskcolor="#505050"
     inkscape:document-units="mm"
     showgrid="false"
     inkscape:zoom="1.3784209"
     inkscape:cx="1452.3866"
     inkscape:cy="514.35669"
     inkscape:window-width="1920"
     inkscape:window-height="1122"
     inkscape:window-x="-8"
     inkscape:window-y="-8"
     inkscape:window-maximized="1"
     inkscape:current-layer="svg45"
     showguides="false" />
  <!--
BasedBox - Fully closed box on a base


This box is more of a building block than a finished item.
Use a vector graphics program (like Inkscape) to add holes or adjust the base
plate. The width of the "brim" can also be adjusted with the **edge_width**
 parameter in the **Finger Joints Settings**.
 
See ClosedBox for variant without a base.



Created with Boxes.py (https://festi.info/boxes.py)
Creation date: 2023-11-06 18:09:09
Command line (remove spaces between dashes): boxes BasedBox - -x=215.9 - -y=342.9 - -h=42 - -thickness=6.35
Url: http://www.festi.info/boxes.py/BasedBox?FingerJoint_angle=90.0&FingerJoint_style=rectangular&FingerJoint_surroundingspaces=2.0&FingerJoint_bottom_lip=0.0&FingerJoint_edge_width=1.0&FingerJoint_extra_length=0.0&FingerJoint_finger=2.0&FingerJoint_play=0.0&FingerJoint_space=2.0&FingerJoint_width=1.0&x=215.9&y=342.9&h=42&outside=0&outside=1&thickness=6.35&format=svg&tabs=0.0&qr_code=0&debug=0&labels=0&labels=1&reference=100&inner_corners=loop&burn=0.1&language=en&render=2
Url short: http://www.festi.info/boxes.py/BasedBox?x=215.9&y=342.9&h=42&thickness=6.35
SettingsUrl: http://www.festi.info/boxes.py/BasedBox?FingerJoint_angle=90.0&FingerJoint_style=rectangular&FingerJoint_surroundingspaces=2.0&FingerJoint_bottom_lip=0.0&FingerJoint_edge_width=1.0&FingerJoint_extra_length=0.0&FingerJoint_finger=2.0&FingerJoint_play=0.0&FingerJoint_space=2.0&FingerJoint_width=1.0&x=215.9&y=342.9&h=42&outside=0&outside=1&thickness=6.35&format=svg&tabs=0.0&qr_code=0&debug=0&labels=0&labels=1&reference=100&inner_corners=loop&burn=0.1&language=en&render=2
SettingsUrl short: http://www.festi.info/boxes.py/BasedBox?x=215.9&y=342.9&h=42&thickness=6.35
-->
  <title
     id="title1">BasedBox</title>
  <metadata
     id="metadata1">
    <rdf:RDF>
      <cc:Work>
        <dc:title>BasedBox</dc:title>
        <dc:date>2023-11-06 18:09:09</dc:date>
        <dc:source>http://www.festi.info/boxes.py/BasedBox?FingerJoint_angle=90.0&amp;FingerJoint_style=rectangular&amp;FingerJoint_surroundingspaces=2.0&amp;FingerJoint_bottom_lip=0.0&amp;FingerJoint_edge_width=1.0&amp;FingerJoint_extra_length=0.0&amp;FingerJoint_finger=2.0&amp;FingerJoint_play=0.0&amp;FingerJoint_space=2.0&amp;FingerJoint_width=1.0&amp;x=215.9&amp;y=342.9&amp;h=42&amp;outside=0&amp;outside=1&amp;thickness=6.35&amp;format=svg&amp;tabs=0.0&amp;qr_code=0&amp;debug=0&amp;labels=0&amp;labels=1&amp;reference=100&amp;inner_corners=loop&amp;burn=0.1&amp;language=en&amp;render=2</dc:source>
        <dc:source>http://www.festi.info/boxes.py/BasedBox?x=215.9&amp;y=342.9&amp;h=42&amp;thickness=6.35</dc:source>
        <dc:description>Fully closed box on a base

This box is more of a building block than a finished item.
Use a vector graphics program (like Inkscape) to add holes or adjust the base
plate. The width of the &quot;brim&quot; can also be adjusted with the **edge_width**
 parameter in the **Finger Joints Settings**.
 
See ClosedBox for variant without a base.


Created with Boxes.py (https://festi.info/boxes.py)
Command line: boxes BasedBox --FingerJoint_angle=90.0 --FingerJoint_style=rectangular --FingerJoint_surroundingspaces=2.0 --FingerJoint_bottom_lip=0.0 --FingerJoint_edge_width=1.0 --FingerJoint_extra_length=0.0 --FingerJoint_finger=2.0 --FingerJoint_play=0.0 --FingerJoint_space=2.0 --FingerJoint_width=1.0 --x=215.9 --y=342.9 --h=42 --outside=0 --outside=1 --thickness=6.35 --format=svg --tabs=0.0 --qr_code=0 --debug=0 --labels=0 --labels=1 --reference=100 --inner_corners=loop --burn=0.1
Command line short: boxes BasedBox --x=215.9 --y=342.9 --h=42 --thickness=6.35
Url: http://www.festi.info/boxes.py/BasedBox?FingerJoint_angle=90.0&amp;FingerJoint_style=rectangular&amp;FingerJoint_surroundingspaces=2.0&amp;FingerJoint_bottom_lip=0.0&amp;FingerJoint_edge_width=1.0&amp;FingerJoint_extra_length=0.0&amp;FingerJoint_finger=2.0&amp;FingerJoint_play=0.0&amp;FingerJoint_space=2.0&amp;FingerJoint_width=1.0&amp;x=215.9&amp;y=342.9&amp;h=42&amp;outside=0&amp;outside=1&amp;thickness=6.35&amp;format=svg&amp;tabs=0.0&amp;qr_code=0&amp;debug=0&amp;labels=0&amp;labels=1&amp;reference=100&amp;inner_corners=loop&amp;burn=0.1&amp;language=en&amp;render=2
Url short: http://www.festi.info/boxes.py/BasedBox?x=215.9&amp;y=342.9&amp;h=42&amp;thickness=6.35
SettingsUrl: http://www.festi.info/boxes.py/BasedBox?FingerJoint_angle=90.0&amp;FingerJoint_style=rectangular&amp;FingerJoint_surroundingspaces=2.0&amp;FingerJoint_bottom_lip=0.0&amp;FingerJoint_edge_width=1.0&amp;FingerJoint_extra_length=0.0&amp;FingerJoint_finger=2.0&amp;FingerJoint_play=0.0&amp;FingerJoint_space=2.0&amp;FingerJoint_width=1.0&amp;x=215.9&amp;y=342.9&amp;h=42&amp;outside=0&amp;outside=1&amp;thickness=6.35&amp;format=svg&amp;tabs=0.0&amp;qr_code=0&amp;debug=0&amp;labels=0&amp;labels=1&amp;reference=100&amp;inner_corners=loop&amp;burn=0.1&amp;language=en&amp;render=2
SettingsUrl short: http://www.festi.info/boxes.py/BasedBox?x=215.9&amp;y=342.9&amp;h=42&amp;thickness=6.35
</dc:description>
      </cc:Work>
    </rdf:RDF>
  </metadata>
  <g
     id="p-1"
     style="fill:none;stroke-linecap:round;stroke-linejoin:round"
     transform="matrix(0.99694564,0,0,0.96219366,-0.73841375,8.8168961)">
    <text
       transform="translate(118.35,433.55)"
       style="font-style:normal;font-weight:normal;font-family:sans-serif;fill:#ff0000"
       font-size="4px"
       text-anchor="middle"
       dominant-baseline="hanging"
       id="text2">Wall 1</text>
    <path
       d="M 16.75,450.2 H 35.7 c 0.1,0 0,-0.1 0,0 v 6.25 c 0,0.055 0.045,0.1 0.1,0.1 h 12.7 c 0.055,0 0.1,-0.045 0.1,-0.1 v -6.25 c 0,-0.1 -0.1,0 0,0 h 12.5 c 0.1,0 0,-0.1 0,0 v 6.25 c 0,0.055 0.045,0.1 0.1,0.1 h 12.7 c 0.055,0 0.1,-0.045 0.1,-0.1 v -6.25 c 0,-0.1 -0.1,0 0,0 h 12.5 c 0.1,0 0,-0.1 0,0 v 6.25 c 0,0.055 0.045,0.1 0.1,0.1 h 12.7 c 0.055,0 0.1,-0.045 0.1,-0.1 v -6.25 c 0,-0.1 -0.1,0 0,0 h 12.5 c 0.1,0 0,-0.1 0,0 v 6.25 c 0,0.055 0.045,0.1 0.1,0.1 h 12.7 c 0.055,0 0.1,-0.045 0.1,-0.1 v -6.25 c 0,-0.1 -0.1,0 0,0 h 12.5 c 0.1,0 0,-0.1 0,0 v 6.25 c 0,0.055 0.045,0.1 0.1,0.1 h 12.7 c 0.055,0 0.1,-0.045 0.1,-0.1 v -6.25 c 0,-0.1 -0.1,0 0,0 h 12.5 c 0.1,0 0,-0.1 0,0 v 6.25 c 0,0.055 0.045,0.1 0.1,0.1 h 12.7 c 0.055,0 0.1,-0.045 0.1,-0.1 v -6.25 c 0,-0.1 -0.1,0 0,0 h 12.5 c 0.1,0 0,-0.1 0,0 v 6.25 c 0,0.055 0.045,0.1 0.1,0.1 h 12.7 c 0.055,0 0.1,-0.045 0.1,-0.1 v -6.25 c 0,-0.1 -0.1,0 0,0 h 18.95 6.35 c 0.055,0 0.1,-0.045 0.1,-0.1 v -8.3 c 0,-0.055 -0.045,-0.1 -0.1,-0.1 h -6.25 c -0.1,0 0,0.1 0,0 v -12.5 c 0,-0.1 -0.1,0 0,0 h 6.25 c 0.055,0 0.1,-0.045 0.1,-0.1 v -8.3 -6.35 c 0,-0.055 -0.045,-0.1 -0.1,-0.1 h -6.35 -19.05 c -0.055,0 -0.1,0.045 -0.1,0.1 v 6.25 c 0,0.1 0.1,0 0,0 h -12.5 c -0.1,0 0,0.1 0,0 v -6.25 c 0,-0.055 -0.045,-0.1 -0.1,-0.1 h -12.7 c -0.055,0 -0.1,0.045 -0.1,0.1 v 6.25 c 0,0.1 0.1,0 0,0 h -12.5 c -0.1,0 0,0.1 0,0 v -6.25 c 0,-0.055 -0.045,-0.1 -0.1,-0.1 h -12.7 c -0.055,0 -0.1,0.045 -0.1,0.1 v 6.25 c 0,0.1 0.1,0 0,0 h -12.5 c -0.1,0 0,0.1 0,0 v -6.25 c 0,-0.055 -0.045,-0.1 -0.1,-0.1 h -12.7 c -0.055,0 -0.1,0.045 -0.1,0.1 v 6.25 c 0,0.1 0.1,0 0,0 h -12.5 c -0.1,0 0,0.1 0,0 v -6.25 c 0,-0.055 -0.045,-0.1 -0.1,-0.1 H 99.3 c -0.055,0 -0.1,0.045 -0.1,0.1 v 6.25 c 0,0.1 0.1,0 0,0 H 86.7 c -0.1,0 0,0.1 0,0 v -6.25 c 0,-0.055 -0.045,-0.1 -0.1,-0.1 H 73.9 c -0.055,0 -0.1,0.045 -0.1,0.1 v 6.25 c 0,0.1 0.1,0 0,0 H 61.3 c -0.1,0 0,0.1 0,0 v -6.25 c 0,-0.055 -0.045,-0.1 -0.1,-0.1 H 48.5 c -0.055,0 -0.1,0.045 -0.1,0.1 v 6.25 c 0,0.1 0.1,0 0,0 H 35.9 c -0.1,0 0,0.1 0,0 v -6.25 c 0,-0.055 -0.045,-0.1 -0.1,-0.1 H 16.75 10.4 c -0.055,0 -0.1,0.045 -0.1,0.1 v 6.35 8.3 c 0,0.055 0.045,0.1 0.1,0.1 h 6.25 c 0.1,0 0,-0.1 0,0 v 12.5 c 0,0.1 0.1,0 0,0 H 10.4 c -0.055,0 -0.1,0.045 -0.1,0.1 v 8.3 c 0,0.055 0.045,0.1 0.1,0.1 h 6.35"
       stroke="#000000"
       stroke-width="0.2"
       id="path2" />
  </g>
  <g
     id="p-2"
     style="fill:none;stroke-linecap:round;stroke-linejoin:round"
     transform="matrix(0.99694564,0,0,0.96219366,-0.73841375,8.8168961)">
    <text
       transform="translate(401.125,433.55)"
       style="font-style:normal;font-weight:normal;font-family:sans-serif;fill:#ff0000"
       font-size="4px"
       text-anchor="middle"
       dominant-baseline="hanging"
       id="text3">Wall 2</text>
    <path
       d="m 236.025,450.2 h 18.95 c 0.1,0 0,-0.1 0,0 v 6.25 c 0,0.055 0.045,0.1 0.1,0.1 h 12.7 c 0.055,0 0.1,-0.045 0.1,-0.1 v -6.25 c 0,-0.1 -0.1,0 0,0 h 12.5 c 0.1,0 0,-0.1 0,0 v 6.25 c 0,0.055 0.045,0.1 0.1,0.1 h 12.7 c 0.055,0 0.1,-0.045 0.1,-0.1 v -6.25 c 0,-0.1 -0.1,0 0,0 h 12.5 c 0.1,0 0,-0.1 0,0 v 6.25 c 0,0.055 0.045,0.1 0.1,0.1 h 12.7 c 0.055,0 0.1,-0.045 0.1,-0.1 v -6.25 c 0,-0.1 -0.1,0 0,0 h 12.5 c 0.1,0 0,-0.1 0,0 v 6.25 c 0,0.055 0.045,0.1 0.1,0.1 h 12.7 c 0.055,0 0.1,-0.045 0.1,-0.1 v -6.25 c 0,-0.1 -0.1,0 0,0 h 12.5 c 0.1,0 0,-0.1 0,0 v 6.25 c 0,0.055 0.045,0.1 0.1,0.1 h 12.7 c 0.055,0 0.1,-0.045 0.1,-0.1 v -6.25 c 0,-0.1 -0.1,0 0,0 h 12.5 c 0.1,0 0,-0.1 0,0 v 6.25 c 0,0.055 0.045,0.1 0.1,0.1 h 12.7 c 0.055,0 0.1,-0.045 0.1,-0.1 v -6.25 c 0,-0.1 -0.1,0 0,0 h 12.5 c 0.1,0 0,-0.1 0,0 v 6.25 c 0,0.055 0.045,0.1 0.1,0.1 h 12.7 c 0.055,0 0.1,-0.045 0.1,-0.1 v -6.25 c 0,-0.1 -0.1,0 0,0 h 12.5 c 0.1,0 0,-0.1 0,0 v 6.25 c 0,0.055 0.045,0.1 0.1,0.1 h 12.7 c 0.055,0 0.1,-0.045 0.1,-0.1 v -6.25 c 0,-0.1 -0.1,0 0,0 h 12.5 c 0.1,0 0,-0.1 0,0 v 6.25 c 0,0.055 0.045,0.1 0.1,0.1 h 12.7 c 0.055,0 0.1,-0.045 0.1,-0.1 v -6.25 c 0,-0.1 -0.1,0 0,0 h 12.5 c 0.1,0 0,-0.1 0,0 v 6.25 c 0,0.055 0.045,0.1 0.1,0.1 h 12.7 c 0.055,0 0.1,-0.045 0.1,-0.1 v -6.25 c 0,-0.1 -0.1,0 0,0 h 12.5 c 0.1,0 0,-0.1 0,0 v 6.25 c 0,0.055 0.045,0.1 0.1,0.1 h 12.7 c 0.055,0 0.1,-0.045 0.1,-0.1 v -6.25 c 0,-0.1 -0.1,0 0,0 h 12.5 c 0.1,0 0,-0.1 0,0 v 6.25 c 0,0.055 0.045,0.1 0.1,0.1 h 12.7 c 0.055,0 0.1,-0.045 0.1,-0.1 v -6.25 c 0,-0.1 -0.1,0 0,0 h 18.95 c 0.055,0 0.1,-0.045 0.1,-0.1 v -8.2 c 0,-0.1 -0.1,0 0,0 h 6.25 c 0.055,0 0.1,-0.045 0.1,-0.1 v -12.7 c 0,-0.055 -0.045,-0.1 -0.1,-0.1 h -6.25 c -0.1,0 0,0.1 0,0 v -8.2 -6.35 c 0,-0.055 -0.045,-0.1 -0.1,-0.1 h -19.05 c -0.055,0 -0.1,0.045 -0.1,0.1 v 6.25 c 0,0.1 0.1,0 0,0 h -12.5 c -0.1,0 0,0.1 0,0 v -6.25 c 0,-0.055 -0.045,-0.1 -0.1,-0.1 h -12.7 c -0.055,0 -0.1,0.045 -0.1,0.1 v 6.25 c 0,0.1 0.1,0 0,0 h -12.5 c -0.1,0 0,0.1 0,0 v -6.25 c 0,-0.055 -0.045,-0.1 -0.1,-0.1 h -12.7 c -0.055,0 -0.1,0.045 -0.1,0.1 v 6.25 c 0,0.1 0.1,0 0,0 h -12.5 c -0.1,0 0,0.1 0,0 v -6.25 c 0,-0.055 -0.045,-0.1 -0.1,-0.1 h -12.7 c -0.055,0 -0.1,0.045 -0.1,0.1 v 6.25 c 0,0.1 0.1,0 0,0 h -12.5 c -0.1,0 0,0.1 0,0 v -6.25 c 0,-0.055 -0.045,-0.1 -0.1,-0.1 h -12.7 c -0.055,0 -0.1,0.045 -0.1,0.1 v 6.25 c 0,0.1 0.1,0 0,0 h -12.5 c -0.1,0 0,0.1 0,0 v -6.25 c 0,-0.055 -0.045,-0.1 -0.1,-0.1 h -12.7 c -0.055,0 -0.1,0.045 -0.1,0.1 v 6.25 c 0,0.1 0.1,0 0,0 h -12.5 c -0.1,0 0,0.1 0,0 v -6.25 c 0,-0.055 -0.045,-0.1 -0.1,-0.1 h -12.7 c -0.055,0 -0.1,0.045 -0.1,0.1 v 6.25 c 0,0.1 0.1,0 0,0 h -12.5 c -0.1,0 0,0.1 0,0 v -6.25 c 0,-0.055 -0.045,-0.1 -0.1,-0.1 h -12.7 c -0.055,0 -0.1,0.045 -0.1,0.1 v 6.25 c 0,0.1 0.1,0 0,0 h -12.5 c -0.1,0 0,0.1 0,0 v -6.25 c 0,-0.055 -0.045,-0.1 -0.1,-0.1 h -12.7 c -0.055,0 -0.1,0.045 -0.1,0.1 v 6.25 c 0,0.1 0.1,0 0,0 h -12.5 c -0.1,0 0,0.1 0,0 v -6.25 c 0,-0.055 -0.045,-0.1 -0.1,-0.1 h -12.7 c -0.055,0 -0.1,0.045 -0.1,0.1 v 6.25 c 0,0.1 0.1,0 0,0 h -12.5 c -0.1,0 0,0.1 0,0 v -6.25 c 0,-0.055 -0.045,-0.1 -0.1,-0.1 h -12.7 c -0.055,0 -0.1,0.045 -0.1,0.1 v 6.25 c 0,0.1 0.1,0 0,0 h -12.5 c -0.1,0 0,0.1 0,0 v -6.25 c 0,-0.055 -0.045,-0.1 -0.1,-0.1 h -12.7 c -0.055,0 -0.1,0.045 -0.1,0.1 v 6.25 c 0,0.1 0.1,0 0,0 h -12.5 c -0.1,0 0,0.1 0,0 v -6.25 c 0,-0.055 -0.045,-0.1 -0.1,-0.1 h -19.05 c -0.055,0 -0.1,0.045 -0.1,0.1 v 6.35 8.2 c 0,0.1 0.1,0 0,0 h -6.25 c -0.055,0 -0.1,0.045 -0.1,0.1 v 12.7 c 0,0.055 0.045,0.1 0.1,0.1 h 6.25 c 0.1,0 0,-0.1 0,0 v 8.2 c 0,0.055 0.045,0.1 0.1,0.1"
       stroke="#000000"
       stroke-width="0.2"
       id="path3" />
  </g>
  <g
     id="p-3"
     style="fill:none;stroke-linecap:round;stroke-linejoin:round"
     transform="matrix(0.99694564,0,0,0.96219366,-0.73841375,8.8168961)">
    <text
       transform="translate(401.125,388.175)"
       style="font-style:normal;font-weight:normal;font-family:sans-serif;fill:#ff0000"
       font-size="4px"
       text-anchor="middle"
       dominant-baseline="hanging"
       id="text4">Wall 4</text>
    <path
       d="m 236.025,404.825 h 18.95 c 0.1,0 0,-0.1 0,0 v 6.25 c 0,0.055 0.045,0.1 0.1,0.1 h 12.7 c 0.055,0 0.1,-0.045 0.1,-0.1 v -6.25 c 0,-0.1 -0.1,0 0,0 h 12.5 c 0.1,0 0,-0.1 0,0 v 6.25 c 0,0.055 0.045,0.1 0.1,0.1 h 12.7 c 0.055,0 0.1,-0.045 0.1,-0.1 v -6.25 c 0,-0.1 -0.1,0 0,0 h 12.5 c 0.1,0 0,-0.1 0,0 v 6.25 c 0,0.055 0.045,0.1 0.1,0.1 h 12.7 c 0.055,0 0.1,-0.045 0.1,-0.1 v -6.25 c 0,-0.1 -0.1,0 0,0 h 12.5 c 0.1,0 0,-0.1 0,0 v 6.25 c 0,0.055 0.045,0.1 0.1,0.1 h 12.7 c 0.055,0 0.1,-0.045 0.1,-0.1 v -6.25 c 0,-0.1 -0.1,0 0,0 h 12.5 c 0.1,0 0,-0.1 0,0 v 6.25 c 0,0.055 0.045,0.1 0.1,0.1 h 12.7 c 0.055,0 0.1,-0.045 0.1,-0.1 v -6.25 c 0,-0.1 -0.1,0 0,0 h 12.5 c 0.1,0 0,-0.1 0,0 v 6.25 c 0,0.055 0.045,0.1 0.1,0.1 h 12.7 c 0.055,0 0.1,-0.045 0.1,-0.1 v -6.25 c 0,-0.1 -0.1,0 0,0 h 12.5 c 0.1,0 0,-0.1 0,0 v 6.25 c 0,0.055 0.045,0.1 0.1,0.1 h 12.7 c 0.055,0 0.1,-0.045 0.1,-0.1 v -6.25 c 0,-0.1 -0.1,0 0,0 h 12.5 c 0.1,0 0,-0.1 0,0 v 6.25 c 0,0.055 0.045,0.1 0.1,0.1 h 12.7 c 0.055,0 0.1,-0.045 0.1,-0.1 v -6.25 c 0,-0.1 -0.1,0 0,0 h 12.5 c 0.1,0 0,-0.1 0,0 v 6.25 c 0,0.055 0.045,0.1 0.1,0.1 h 12.7 c 0.055,0 0.1,-0.045 0.1,-0.1 v -6.25 c 0,-0.1 -0.1,0 0,0 h 12.5 c 0.1,0 0,-0.1 0,0 v 6.25 c 0,0.055 0.045,0.1 0.1,0.1 h 12.7 c 0.055,0 0.1,-0.045 0.1,-0.1 v -6.25 c 0,-0.1 -0.1,0 0,0 h 12.5 c 0.1,0 0,-0.1 0,0 v 6.25 c 0,0.055 0.045,0.1 0.1,0.1 h 12.7 c 0.055,0 0.1,-0.045 0.1,-0.1 v -6.25 c 0,-0.1 -0.1,0 0,0 h 12.5 c 0.1,0 0,-0.1 0,0 v 6.25 c 0,0.055 0.045,0.1 0.1,0.1 h 12.7 c 0.055,0 0.1,-0.045 0.1,-0.1 v -6.25 c 0,-0.1 -0.1,0 0,0 h 18.95 c 0.055,0 0.1,-0.045 0.1,-0.1 v -8.2 c 0,-0.1 -0.1,0 0,0 h 6.25 c 0.055,0 0.1,-0.045 0.1,-0.1 v -12.7 c 0,-0.055 -0.045,-0.1 -0.1,-0.1 h -6.25 c -0.1,0 0,0.1 0,0 v -8.2 -6.35 c 0,-0.055 -0.045,-0.1 -0.1,-0.1 h -19.05 c -0.055,0 -0.1,0.045 -0.1,0.1 v 6.25 c 0,0.1 0.1,0 0,0 h -12.5 c -0.1,0 0,0.1 0,0 v -6.25 c 0,-0.055 -0.045,-0.1 -0.1,-0.1 h -12.7 c -0.055,0 -0.1,0.045 -0.1,0.1 v 6.25 c 0,0.1 0.1,0 0,0 h -12.5 c -0.1,0 0,0.1 0,0 v -6.25 c 0,-0.055 -0.045,-0.1 -0.1,-0.1 h -12.7 c -0.055,0 -0.1,0.045 -0.1,0.1 v 6.25 c 0,0.1 0.1,0 0,0 h -12.5 c -0.1,0 0,0.1 0,0 v -6.25 c 0,-0.055 -0.045,-0.1 -0.1,-0.1 h -12.7 c -0.055,0 -0.1,0.045 -0.1,0.1 v 6.25 c 0,0.1 0.1,0 0,0 h -12.5 c -0.1,0 0,0.1 0,0 v -6.25 c 0,-0.055 -0.045,-0.1 -0.1,-0.1 h -12.7 c -0.055,0 -0.1,0.045 -0.1,0.1 v 6.25 c 0,0.1 0.1,0 0,0 h -12.5 c -0.1,0 0,0.1 0,0 v -6.25 c 0,-0.055 -0.045,-0.1 -0.1,-0.1 h -12.7 c -0.055,0 -0.1,0.045 -0.1,0.1 v 6.25 c 0,0.1 0.1,0 0,0 h -12.5 c -0.1,0 0,0.1 0,0 v -6.25 c 0,-0.055 -0.045,-0.1 -0.1,-0.1 h -12.7 c -0.055,0 -0.1,0.045 -0.1,0.1 v 6.25 c 0,0.1 0.1,0 0,0 h -12.5 c -0.1,0 0,0.1 0,0 v -6.25 c 0,-0.055 -0.045,-0.1 -0.1,-0.1 h -12.7 c -0.055,0 -0.1,0.045 -0.1,0.1 v 6.25 c 0,0.1 0.1,0 0,0 h -12.5 c -0.1,0 0,0.1 0,0 v -6.25 c 0,-0.055 -0.045,-0.1 -0.1,-0.1 h -12.7 c -0.055,0 -0.1,0.045 -0.1,0.1 v 6.25 c 0,0.1 0.1,0 0,0 h -12.5 c -0.1,0 0,0.1 0,0 v -6.25 c 0,-0.055 -0.045,-0.1 -0.1,-0.1 h -12.7 c -0.055,0 -0.1,0.045 -0.1,0.1 v 6.25 c 0,0.1 0.1,0 0,0 h -12.5 c -0.1,0 0,0.1 0,0 v -6.25 c 0,-0.055 -0.045,-0.1 -0.1,-0.1 h -12.7 c -0.055,0 -0.1,0.045 -0.1,0.1 v 6.25 c 0,0.1 0.1,0 0,0 h -12.5 c -0.1,0 0,0.1 0,0 v -6.25 c 0,-0.055 -0.045,-0.1 -0.1,-0.1 h -12.7 c -0.055,0 -0.1,0.045 -0.1,0.1 v 6.25 c 0,0.1 0.1,0 0,0 h -12.5 c -0.1,0 0,0.1 0,0 v -6.25 c 0,-0.055 -0.045,-0.1 -0.1,-0.1 h -19.05 c -0.055,0 -0.1,0.045 -0.1,0.1 v 6.35 8.2 c 0,0.1 0.1,0 0,0 h -6.25 c -0.055,0 -0.1,0.045 -0.1,0.1 v 12.7 c 0,0.055 0.045,0.1 0.1,0.1 h 6.25 c 0.1,0 0,-0.1 0,0 v 8.2 c 0,0.055 0.045,0.1 0.1,0.1"
       stroke="#000000"
       stroke-width="0.2"
       id="path4" />
  </g>
  <g
     id="p-4"
     style="fill:none;stroke-linecap:round;stroke-linejoin:round"
     transform="matrix(0.99694564,0,0,0.96219366,-0.73841375,8.8168961)">
    <text
       transform="translate(118.35,388.175)"
       style="font-style:normal;font-weight:normal;font-family:sans-serif;fill:#ff0000"
       font-size="4px"
       text-anchor="middle"
       dominant-baseline="hanging"
       id="text5">Wall 3</text>
    <path
       d="M 16.75,404.825 H 35.7 c 0.1,0 0,-0.1 0,0 v 6.25 c 0,0.055 0.045,0.1 0.1,0.1 h 12.7 c 0.055,0 0.1,-0.045 0.1,-0.1 v -6.25 c 0,-0.1 -0.1,0 0,0 h 12.5 c 0.1,0 0,-0.1 0,0 v 6.25 c 0,0.055 0.045,0.1 0.1,0.1 h 12.7 c 0.055,0 0.1,-0.045 0.1,-0.1 v -6.25 c 0,-0.1 -0.1,0 0,0 h 12.5 c 0.1,0 0,-0.1 0,0 v 6.25 c 0,0.055 0.045,0.1 0.1,0.1 h 12.7 c 0.055,0 0.1,-0.045 0.1,-0.1 v -6.25 c 0,-0.1 -0.1,0 0,0 h 12.5 c 0.1,0 0,-0.1 0,0 v 6.25 c 0,0.055 0.045,0.1 0.1,0.1 h 12.7 c 0.055,0 0.1,-0.045 0.1,-0.1 v -6.25 c 0,-0.1 -0.1,0 0,0 h 12.5 c 0.1,0 0,-0.1 0,0 v 6.25 c 0,0.055 0.045,0.1 0.1,0.1 h 12.7 c 0.055,0 0.1,-0.045 0.1,-0.1 v -6.25 c 0,-0.1 -0.1,0 0,0 h 12.5 c 0.1,0 0,-0.1 0,0 v 6.25 c 0,0.055 0.045,0.1 0.1,0.1 h 12.7 c 0.055,0 0.1,-0.045 0.1,-0.1 v -6.25 c 0,-0.1 -0.1,0 0,0 h 12.5 c 0.1,0 0,-0.1 0,0 v 6.25 c 0,0.055 0.045,0.1 0.1,0.1 h 12.7 c 0.055,0 0.1,-0.045 0.1,-0.1 v -6.25 c 0,-0.1 -0.1,0 0,0 h 18.95 6.35 c 0.055,0 0.1,-0.045 0.1,-0.1 v -8.3 c 0,-0.055 -0.045,-0.1 -0.1,-0.1 h -6.25 c -0.1,0 0,0.1 0,0 v -12.5 c 0,-0.1 -0.1,0 0,0 h 6.25 c 0.055,0 0.1,-0.045 0.1,-0.1 v -8.3 -6.35 c 0,-0.055 -0.045,-0.1 -0.1,-0.1 h -6.35 -19.05 c -0.055,0 -0.1,0.045 -0.1,0.1 v 6.25 c 0,0.1 0.1,0 0,0 h -12.5 c -0.1,0 0,0.1 0,0 v -6.25 c 0,-0.055 -0.045,-0.1 -0.1,-0.1 h -12.7 c -0.055,0 -0.1,0.045 -0.1,0.1 v 6.25 c 0,0.1 0.1,0 0,0 h -12.5 c -0.1,0 0,0.1 0,0 v -6.25 c 0,-0.055 -0.045,-0.1 -0.1,-0.1 h -12.7 c -0.055,0 -0.1,0.045 -0.1,0.1 v 6.25 c 0,0.1 0.1,0 0,0 h -12.5 c -0.1,0 0,0.1 0,0 v -6.25 c 0,-0.055 -0.045,-0.1 -0.1,-0.1 h -12.7 c -0.055,0 -0.1,0.045 -0.1,0.1 v 6.25 c 0,0.1 0.1,0 0,0 h -12.5 c -0.1,0 0,0.1 0,0 v -6.25 c 0,-0.055 -0.045,-0.1 -0.1,-0.1 H 99.3 c -0.055,0 -0.1,0.045 -0.1,0.1 v 6.25 c 0,0.1 0.1,0 0,0 H 86.7 c -0.1,0 0,0.1 0,0 v -6.25 c 0,-0.055 -0.045,-0.1 -0.1,-0.1 H 73.9 c -0.055,0 -0.1,0.045 -0.1,0.1 v 6.25 c 0,0.1 0.1,0 0,0 H 61.3 c -0.1,0 0,0.1 0,0 v -6.25 c 0,-0.055 -0.045,-0.1 -0.1,-0.1 H 48.5 c -0.055,0 -0.1,0.045 -0.1,0.1 v 6.25 c 0,0.1 0.1,0 0,0 H 35.9 c -0.1,0 0,0.1 0,0 v -6.25 c 0,-0.055 -0.045,-0.1 -0.1,-0.1 H 16.75 10.4 c -0.055,0 -0.1,0.045 -0.1,0.1 v 6.35 8.3 c 0,0.055 0.045,0.1 0.1,0.1 h 6.25 c 0.1,0 0,-0.1 0,0 v 12.5 c 0,0.1 0.1,0 0,0 H 10.4 c -0.055,0 -0.1,0.045 -0.1,0.1 v 8.3 c 0,0.055 0.045,0.1 0.1,0.1 h 6.35"
       stroke="#000000"
       stroke-width="0.2"
       id="path5" />
  </g>
  <g
     id="p-5"
     style="fill:none;stroke-linecap:round;stroke-linejoin:round"
     transform="matrix(0.99694564,0,0,0.96219366,-3.3842472,8.8168961)">
    <text
       transform="translate(118.35,192.35)"
       style="font-style:normal;font-weight:normal;font-family:sans-serif;fill:#ff0000"
       font-size="4px"
       text-anchor="middle"
       dominant-baseline="hanging"
       id="text6">Top</text>
    <path
       d="M 16.75,359.45 H 35.7 c 0.1,0 0,-0.1 0,0 v 6.25 c 0,0.055 0.045,0.1 0.1,0.1 h 12.7 c 0.055,0 0.1,-0.045 0.1,-0.1 v -6.25 c 0,-0.1 -0.1,0 0,0 h 12.5 c 0.1,0 0,-0.1 0,0 v 6.25 c 0,0.055 0.045,0.1 0.1,0.1 h 12.7 c 0.055,0 0.1,-0.045 0.1,-0.1 v -6.25 c 0,-0.1 -0.1,0 0,0 h 12.5 c 0.1,0 0,-0.1 0,0 v 6.25 c 0,0.055 0.045,0.1 0.1,0.1 h 12.7 c 0.055,0 0.1,-0.045 0.1,-0.1 v -6.25 c 0,-0.1 -0.1,0 0,0 h 12.5 c 0.1,0 0,-0.1 0,0 v 6.25 c 0,0.055 0.045,0.1 0.1,0.1 h 12.7 c 0.055,0 0.1,-0.045 0.1,-0.1 v -6.25 c 0,-0.1 -0.1,0 0,0 h 12.5 c 0.1,0 0,-0.1 0,0 v 6.25 c 0,0.055 0.045,0.1 0.1,0.1 h 12.7 c 0.055,0 0.1,-0.045 0.1,-0.1 v -6.25 c 0,-0.1 -0.1,0 0,0 h 12.5 c 0.1,0 0,-0.1 0,0 v 6.25 c 0,0.055 0.045,0.1 0.1,0.1 h 12.7 c 0.055,0 0.1,-0.045 0.1,-0.1 v -6.25 c 0,-0.1 -0.1,0 0,0 h 12.5 c 0.1,0 0,-0.1 0,0 v 6.25 c 0,0.055 0.045,0.1 0.1,0.1 h 12.7 c 0.055,0 0.1,-0.045 0.1,-0.1 v -6.25 c 0,-0.1 -0.1,0 0,0 h 18.95 c 0.055,0 0.1,-0.045 0.1,-0.1 V 340.4 c 0,-0.1 -0.1,0 0,0 h 6.25 c 0.055,0 0.1,-0.045 0.1,-0.1 v -12.7 c 0,-0.055 -0.045,-0.1 -0.1,-0.1 h -6.25 c -0.1,0 0,0.1 0,0 V 315 c 0,-0.1 -0.1,0 0,0 h 6.25 c 0.055,0 0.1,-0.045 0.1,-0.1 v -12.7 c 0,-0.055 -0.045,-0.1 -0.1,-0.1 h -6.25 c -0.1,0 0,0.1 0,0 v -12.5 c 0,-0.1 -0.1,0 0,0 h 6.25 c 0.055,0 0.1,-0.045 0.1,-0.1 v -12.7 c 0,-0.055 -0.045,-0.1 -0.1,-0.1 h -6.25 c -0.1,0 0,0.1 0,0 v -12.5 c 0,-0.1 -0.1,0 0,0 h 6.25 c 0.055,0 0.1,-0.045 0.1,-0.1 v -12.7 c 0,-0.055 -0.045,-0.1 -0.1,-0.1 h -6.25 c -0.1,0 0,0.1 0,0 v -12.5 c 0,-0.1 -0.1,0 0,0 h 6.25 c 0.055,0 0.1,-0.045 0.1,-0.1 V 226 c 0,-0.055 -0.045,-0.1 -0.1,-0.1 h -6.25 c -0.1,0 0,0.1 0,0 v -12.5 c 0,-0.1 -0.1,0 0,0 h 6.25 c 0.055,0 0.1,-0.045 0.1,-0.1 v -12.7 c 0,-0.055 -0.045,-0.1 -0.1,-0.1 h -6.25 c -0.1,0 0,0.1 0,0 V 188 c 0,-0.1 -0.1,0 0,0 h 6.25 c 0.055,0 0.1,-0.045 0.1,-0.1 v -12.7 c 0,-0.055 -0.045,-0.1 -0.1,-0.1 h -6.25 c -0.1,0 0,0.1 0,0 v -12.5 c 0,-0.1 -0.1,0 0,0 h 6.25 c 0.055,0 0.1,-0.045 0.1,-0.1 v -12.7 c 0,-0.055 -0.045,-0.1 -0.1,-0.1 h -6.25 c -0.1,0 0,0.1 0,0 v -12.5 c 0,-0.1 -0.1,0 0,0 h 6.25 c 0.055,0 0.1,-0.045 0.1,-0.1 v -12.7 c 0,-0.055 -0.045,-0.1 -0.1,-0.1 h -6.25 c -0.1,0 0,0.1 0,0 v -12.5 c 0,-0.1 -0.1,0 0,0 h 6.25 c 0.055,0 0.1,-0.045 0.1,-0.1 V 99 c 0,-0.055 -0.045,-0.1 -0.1,-0.1 h -6.25 c -0.1,0 0,0.1 0,0 V 86.4 c 0,-0.1 -0.1,0 0,0 h 6.25 c 0.055,0 0.1,-0.045 0.1,-0.1 V 73.6 c 0,-0.055 -0.045,-0.1 -0.1,-0.1 h -6.25 c -0.1,0 0,0.1 0,0 V 61 c 0,-0.1 -0.1,0 0,0 h 6.25 c 0.055,0 0.1,-0.045 0.1,-0.1 V 48.2 c 0,-0.055 -0.045,-0.1 -0.1,-0.1 h -6.25 c -0.1,0 0,0.1 0,0 V 29.15 c 0,-0.055 -0.045,-0.1 -0.1,-0.1 H 201 c -0.1,0 0,0.1 0,0 V 22.8 c 0,-0.055 -0.045,-0.1 -0.1,-0.1 h -12.7 c -0.055,0 -0.1,0.045 -0.1,0.1 v 6.25 c 0,0.1 0.1,0 0,0 h -12.5 c -0.1,0 0,0.1 0,0 V 22.8 c 0,-0.055 -0.045,-0.1 -0.1,-0.1 h -12.7 c -0.055,0 -0.1,0.045 -0.1,0.1 v 6.25 c 0,0.1 0.1,0 0,0 h -12.5 c -0.1,0 0,0.1 0,0 V 22.8 c 0,-0.055 -0.045,-0.1 -0.1,-0.1 h -12.7 c -0.055,0 -0.1,0.045 -0.1,0.1 v 6.25 c 0,0.1 0.1,0 0,0 h -12.5 c -0.1,0 0,0.1 0,0 V 22.8 c 0,-0.055 -0.045,-0.1 -0.1,-0.1 H 112 c -0.055,0 -0.1,0.045 -0.1,0.1 v 6.25 c 0,0.1 0.1,0 0,0 H 99.4 c -0.1,0 0,0.1 0,0 V 22.8 c 0,-0.055 -0.045,-0.1 -0.1,-0.1 H 86.6 c -0.055,0 -0.1,0.045 -0.1,0.1 v 6.25 c 0,0.1 0.1,0 0,0 H 74 c -0.1,0 0,0.1 0,0 V 22.8 c 0,-0.055 -0.045,-0.1 -0.1,-0.1 H 61.2 c -0.055,0 -0.1,0.045 -0.1,0.1 v 6.25 c 0,0.1 0.1,0 0,0 H 48.6 c -0.1,0 0,0.1 0,0 V 22.8 c 0,-0.055 -0.045,-0.1 -0.1,-0.1 H 35.8 c -0.055,0 -0.1,0.045 -0.1,0.1 v 6.25 c 0,0.1 0.1,0 0,0 H 16.75 c -0.055,0 -0.1,0.045 -0.1,0.1 V 48.1 c 0,0.1 0.1,0 0,0 H 10.4 c -0.055,0 -0.1,0.045 -0.1,0.1 v 12.7 c 0,0.055 0.045,0.1 0.1,0.1 h 6.25 c 0.1,0 0,-0.1 0,0 v 12.5 c 0,0.1 0.1,0 0,0 H 10.4 c -0.055,0 -0.1,0.045 -0.1,0.1 v 12.7 c 0,0.055 0.045,0.1 0.1,0.1 h 6.25 c 0.1,0 0,-0.1 0,0 v 12.5 c 0,0.1 0.1,0 0,0 H 10.4 c -0.055,0 -0.1,0.045 -0.1,0.1 v 12.7 c 0,0.055 0.045,0.1 0.1,0.1 h 6.25 c 0.1,0 0,-0.1 0,0 v 12.5 c 0,0.1 0.1,0 0,0 H 10.4 c -0.055,0 -0.1,0.045 -0.1,0.1 v 12.7 c 0,0.055 0.045,0.1 0.1,0.1 h 6.25 c 0.1,0 0,-0.1 0,0 v 12.5 c 0,0.1 0.1,0 0,0 H 10.4 c -0.055,0 -0.1,0.045 -0.1,0.1 v 12.7 c 0,0.055 0.045,0.1 0.1,0.1 h 6.25 c 0.1,0 0,-0.1 0,0 v 12.5 c 0,0.1 0.1,0 0,0 H 10.4 c -0.055,0 -0.1,0.045 -0.1,0.1 v 12.7 c 0,0.055 0.045,0.1 0.1,0.1 h 6.25 c 0.1,0 0,-0.1 0,0 v 12.5 c 0,0.1 0.1,0 0,0 H 10.4 c -0.055,0 -0.1,0.045 -0.1,0.1 v 12.7 c 0,0.055 0.045,0.1 0.1,0.1 h 6.25 c 0.1,0 0,-0.1 0,0 v 12.5 c 0,0.1 0.1,0 0,0 H 10.4 c -0.055,0 -0.1,0.045 -0.1,0.1 v 12.7 c 0,0.055 0.045,0.1 0.1,0.1 h 6.25 c 0.1,0 0,-0.1 0,0 v 12.5 c 0,0.1 0.1,0 0,0 H 10.4 c -0.055,0 -0.1,0.045 -0.1,0.1 v 12.7 c 0,0.055 0.045,0.1 0.1,0.1 h 6.25 c 0.1,0 0,-0.1 0,0 v 12.5 c 0,0.1 0.1,0 0,0 H 10.4 c -0.055,0 -0.1,0.045 -0.1,0.1 v 12.7 c 0,0.055 0.045,0.1 0.1,0.1 h 6.25 c 0.1,0 0,-0.1 0,0 v 12.5 c 0,0.1 0.1,0 0,0 H 10.4 c -0.055,0 -0.1,0.045 -0.1,0.1 v 12.7 c 0,0.055 0.045,0.1 0.1,0.1 h 6.25 c 0.1,0 0,-0.1 0,0 v 12.5 c 0,0.1 0.1,0 0,0 H 10.4 c -0.055,0 -0.1,0.045 -0.1,0.1 v 12.7 c 0,0.055 0.045,0.1 0.1,0.1 h 6.25 c 0.1,0 0,-0.1 0,0 v 18.95 c 0,0.055 0.045,0.1 0.1,0.1"
       stroke="#000000"
       stroke-width="0.2"
       id="path6" />
  </g>
  <g
     id="p-6"
     style="fill:none;stroke-linecap:round;stroke-linejoin:round;stroke-width:0.99957574;stroke-dasharray:none"
     transform="matrix(0.99694564,0,0,0.96219366,-0.73841375,8.8168961)">
    <path
       d="m 267.775,359.25 h -6.25 c -0.1,0 0,0.1 0,0 v -6.15 c 0,-0.1 -0.1,0 0,0 h 12.5 c 0.1,0 0,-0.1 0,0 v 6.15 c 0,0.1 0.1,0 0,0 z"
       stroke="#0000ff"
       stroke-width="0.2"
       id="path7"
       style="stroke-width:0.99957574;stroke-dasharray:none" />
    <path
       d="m 293.175,359.25 h -6.25 c -0.1,0 0,0.1 0,0 v -6.15 c 0,-0.1 -0.1,0 0,0 h 12.5 c 0.1,0 0,-0.1 0,0 v 6.15 c 0,0.1 0.1,0 0,0 z"
       stroke="#0000ff"
       stroke-width="0.2"
       id="path8"
       style="stroke-width:0.99957574;stroke-dasharray:none" />
    <path
       d="m 318.575,359.25 h -6.25 c -0.1,0 0,0.1 0,0 v -6.15 c 0,-0.1 -0.1,0 0,0 h 12.5 c 0.1,0 0,-0.1 0,0 v 6.15 c 0,0.1 0.1,0 0,0 z"
       stroke="#0000ff"
       stroke-width="0.2"
       id="path9"
       style="stroke-width:0.99957574;stroke-dasharray:none" />
    <path
       d="m 343.975,359.25 h -6.25 c -0.1,0 0,0.1 0,0 v -6.15 c 0,-0.1 -0.1,0 0,0 h 12.5 c 0.1,0 0,-0.1 0,0 v 6.15 c 0,0.1 0.1,0 0,0 z"
       stroke="#0000ff"
       stroke-width="0.2"
       id="path10"
       style="stroke-width:0.99957574;stroke-dasharray:none" />
    <path
       d="m 369.375,359.25 h -6.25 c -0.1,0 0,0.1 0,0 v -6.15 c 0,-0.1 -0.1,0 0,0 h 12.5 c 0.1,0 0,-0.1 0,0 v 6.15 c 0,0.1 0.1,0 0,0 z"
       stroke="#0000ff"
       stroke-width="0.2"
       id="path11"
       style="stroke-width:0.99957574;stroke-dasharray:none" />
    <path
       d="m 394.775,359.25 h -6.25 c -0.1,0 0,0.1 0,0 v -6.15 c 0,-0.1 -0.1,0 0,0 h 12.5 c 0.1,0 0,-0.1 0,0 v 6.15 c 0,0.1 0.1,0 0,0 z"
       stroke="#0000ff"
       stroke-width="0.2"
       id="path12"
       style="stroke-width:0.99957574;stroke-dasharray:none" />
    <path
       d="m 420.175,359.25 h -6.25 c -0.1,0 0,0.1 0,0 v -6.15 c 0,-0.1 -0.1,0 0,0 h 12.5 c 0.1,0 0,-0.1 0,0 v 6.15 c 0,0.1 0.1,0 0,0 z"
       stroke="#0000ff"
       stroke-width="0.2"
       id="path13"
       style="stroke-width:0.99957574;stroke-dasharray:none" />
    <text
       transform="translate(343.975,186)"
       style="font-style:normal;font-weight:normal;font-family:sans-serif;fill:#ff0000;stroke-width:0.99957574;stroke-dasharray:none"
       font-size="4px"
       text-anchor="middle"
       dominant-baseline="hanging"
       id="text13">Base</text>
    <path
       d="m 242.375,365.8 h 203.2 12.7 c 0.055,0 0.1,-0.045 0.1,-0.1 V 353 22.8 10.1 c 0,-0.055 -0.045,-0.1 -0.1,-0.1 h -12.7 -203.2 -12.7 c -0.055,0 -0.1,0.045 -0.1,0.1 V 22.8 353 365.7 c 0,0.055 0.045,0.1 0.1,0.1 h 12.7"
       stroke="#000000"
       stroke-width="0.2"
       id="path14"
       style="stroke-width:0.99957574;stroke-dasharray:none" />
    <path
       d="m 451.825,327.6 v 6.25 c 0,0.1 0.1,0 0,0 h -6.15 c -0.1,0 0,0.1 0,0 v -12.5 c 0,-0.1 -0.1,0 0,0 h 6.15 c 0.1,0 0,-0.1 0,0 z"
       stroke="#0000ff"
       stroke-width="0.2"
       id="path15"
       style="stroke-width:0.99957574;stroke-dasharray:none" />
    <path
       d="m 451.825,302.2 v 6.25 c 0,0.1 0.1,0 0,0 h -6.15 c -0.1,0 0,0.1 0,0 v -12.5 c 0,-0.1 -0.1,0 0,0 h 6.15 c 0.1,0 0,-0.1 0,0 z"
       stroke="#0000ff"
       stroke-width="0.2"
       id="path16"
       style="stroke-width:0.99957574;stroke-dasharray:none" />
    <path
       d="m 451.825,276.8 v 6.25 c 0,0.1 0.1,0 0,0 h -6.15 c -0.1,0 0,0.1 0,0 v -12.5 c 0,-0.1 -0.1,0 0,0 h 6.15 c 0.1,0 0,-0.1 0,0 z"
       stroke="#0000ff"
       stroke-width="0.2"
       id="path17"
       style="stroke-width:0.99957574;stroke-dasharray:none" />
    <path
       d="m 451.825,251.4 v 6.25 c 0,0.1 0.1,0 0,0 h -6.15 c -0.1,0 0,0.1 0,0 v -12.5 c 0,-0.1 -0.1,0 0,0 h 6.15 c 0.1,0 0,-0.1 0,0 z"
       stroke="#0000ff"
       stroke-width="0.2"
       id="path18"
       style="stroke-width:0.99957574;stroke-dasharray:none" />
    <path
       d="m 451.825,226 v 6.25 c 0,0.1 0.1,0 0,0 h -6.15 c -0.1,0 0,0.1 0,0 v -12.5 c 0,-0.1 -0.1,0 0,0 h 6.15 c 0.1,0 0,-0.1 0,0 z"
       stroke="#0000ff"
       stroke-width="0.2"
       id="path19"
       style="stroke-width:0.99957574;stroke-dasharray:none" />
    <path
       d="m 451.825,200.6 v 6.25 c 0,0.1 0.1,0 0,0 h -6.15 c -0.1,0 0,0.1 0,0 v -12.5 c 0,-0.1 -0.1,0 0,0 h 6.15 c 0.1,0 0,-0.1 0,0 z"
       stroke="#0000ff"
       stroke-width="0.2"
       id="path20"
       style="stroke-width:0.99957574;stroke-dasharray:none" />
    <path
       d="m 451.825,175.2 v 6.25 c 0,0.1 0.1,0 0,0 h -6.15 c -0.1,0 0,0.1 0,0 v -12.5 c 0,-0.1 -0.1,0 0,0 h 6.15 c 0.1,0 0,-0.1 0,0 z"
       stroke="#0000ff"
       stroke-width="0.2"
       id="path21"
       style="stroke-width:0.99957574;stroke-dasharray:none" />
    <path
       d="m 451.825,149.8 v 6.25 c 0,0.1 0.1,0 0,0 h -6.15 c -0.1,0 0,0.1 0,0 v -12.5 c 0,-0.1 -0.1,0 0,0 h 6.15 c 0.1,0 0,-0.1 0,0 z"
       stroke="#0000ff"
       stroke-width="0.2"
       id="path22"
       style="stroke-width:0.99957574;stroke-dasharray:none" />
    <path
       d="m 451.825,124.4 v 6.25 c 0,0.1 0.1,0 0,0 h -6.15 c -0.1,0 0,0.1 0,0 v -12.5 c 0,-0.1 -0.1,0 0,0 h 6.15 c 0.1,0 0,-0.1 0,0 z"
       stroke="#0000ff"
       stroke-width="0.2"
       id="path23"
       style="stroke-width:0.99957574;stroke-dasharray:none" />
    <path
       d="m 451.825,99 v 6.25 c 0,0.1 0.1,0 0,0 h -6.15 c -0.1,0 0,0.1 0,0 v -12.5 c 0,-0.1 -0.1,0 0,0 h 6.15 c 0.1,0 0,-0.1 0,0 z"
       stroke="#0000ff"
       stroke-width="0.2"
       id="path24"
       style="stroke-width:0.99957574;stroke-dasharray:none" />
    <path
       d="m 451.825,73.6 v 6.25 c 0,0.1 0.1,0 0,0 h -6.15 c -0.1,0 0,0.1 0,0 v -12.5 c 0,-0.1 -0.1,0 0,0 h 6.15 c 0.1,0 0,-0.1 0,0 z"
       stroke="#0000ff"
       stroke-width="0.2"
       id="path25"
       style="stroke-width:0.99957574;stroke-dasharray:none" />
    <path
       d="m 451.825,48.2 v 6.25 c 0,0.1 0.1,0 0,0 h -6.15 c -0.1,0 0,0.1 0,0 v -12.5 c 0,-0.1 -0.1,0 0,0 h 6.15 c 0.1,0 0,-0.1 0,0 z"
       stroke="#0000ff"
       stroke-width="0.2"
       id="path26"
       style="stroke-width:0.99957574;stroke-dasharray:none" />
    <path
       d="m 420.175,16.55 h 6.25 c 0.1,0 0,-0.1 0,0 v 6.15 c 0,0.1 0.1,0 0,0 h -12.5 c -0.1,0 0,0.1 0,0 v -6.15 c 0,-0.1 -0.1,0 0,0 z"
       stroke="#0000ff"
       stroke-width="0.2"
       id="path27"
       style="stroke-width:0.99957574;stroke-dasharray:none" />
    <path
       d="m 394.775,16.55 h 6.25 c 0.1,0 0,-0.1 0,0 v 6.15 c 0,0.1 0.1,0 0,0 h -12.5 c -0.1,0 0,0.1 0,0 v -6.15 c 0,-0.1 -0.1,0 0,0 z"
       stroke="#0000ff"
       stroke-width="0.2"
       id="path28"
       style="stroke-width:0.99957574;stroke-dasharray:none" />
    <path
       d="m 369.375,16.55 h 6.25 c 0.1,0 0,-0.1 0,0 v 6.15 c 0,0.1 0.1,0 0,0 h -12.5 c -0.1,0 0,0.1 0,0 v -6.15 c 0,-0.1 -0.1,0 0,0 z"
       stroke="#0000ff"
       stroke-width="0.2"
       id="path29"
       style="stroke-width:0.99957574;stroke-dasharray:none" />
    <path
       d="m 343.975,16.55 h 6.25 c 0.1,0 0,-0.1 0,0 v 6.15 c 0,0.1 0.1,0 0,0 h -12.5 c -0.1,0 0,0.1 0,0 v -6.15 c 0,-0.1 -0.1,0 0,0 z"
       stroke="#0000ff"
       stroke-width="0.2"
       id="path30"
       style="stroke-width:0.99957574;stroke-dasharray:none" />
    <path
       d="m 318.575,16.55 h 6.25 c 0.1,0 0,-0.1 0,0 v 6.15 c 0,0.1 0.1,0 0,0 h -12.5 c -0.1,0 0,0.1 0,0 v -6.15 c 0,-0.1 -0.1,0 0,0 z"
       stroke="#0000ff"
       stroke-width="0.2"
       id="path31"
       style="stroke-width:0.99957574;stroke-dasharray:none" />
    <path
       d="m 293.175,16.55 h 6.25 c 0.1,0 0,-0.1 0,0 v 6.15 c 0,0.1 0.1,0 0,0 h -12.5 c -0.1,0 0,0.1 0,0 v -6.15 c 0,-0.1 -0.1,0 0,0 z"
       stroke="#0000ff"
       stroke-width="0.2"
       id="path32"
       style="stroke-width:0.99957574;stroke-dasharray:none" />
    <path
       d="m 267.775,16.55 h 6.25 c 0.1,0 0,-0.1 0,0 v 6.15 c 0,0.1 0.1,0 0,0 h -12.5 c -0.1,0 0,0.1 0,0 v -6.15 c 0,-0.1 -0.1,0 0,0 z"
       stroke="#0000ff"
       stroke-width="0.2"
       id="path33"
       style="stroke-width:0.99957574;stroke-dasharray:none" />
    <path
       d="m 236.125,48.2 v -6.25 c 0,-0.1 -0.1,0 0,0 h 6.15 c 0.1,0 0,-0.1 0,0 v 12.5 c 0,0.1 0.1,0 0,0 h -6.15 c -0.1,0 0,0.1 0,0 z"
       stroke="#0000ff"
       stroke-width="0.2"
       id="path34"
       style="stroke-width:0.99957574;stroke-dasharray:none" />
    <path
       d="m 236.125,73.6 v -6.25 c 0,-0.1 -0.1,0 0,0 h 6.15 c 0.1,0 0,-0.1 0,0 v 12.5 c 0,0.1 0.1,0 0,0 h -6.15 c -0.1,0 0,0.1 0,0 z"
       stroke="#0000ff"
       stroke-width="0.2"
       id="path35"
       style="stroke-width:0.99957574;stroke-dasharray:none" />
    <path
       d="m 236.125,99 v -6.25 c 0,-0.1 -0.1,0 0,0 h 6.15 c 0.1,0 0,-0.1 0,0 v 12.5 c 0,0.1 0.1,0 0,0 h -6.15 c -0.1,0 0,0.1 0,0 z"
       stroke="#0000ff"
       stroke-width="0.2"
       id="path36"
       style="stroke-width:0.99957574;stroke-dasharray:none" />
    <path
       d="m 236.125,124.4 v -6.25 c 0,-0.1 -0.1,0 0,0 h 6.15 c 0.1,0 0,-0.1 0,0 v 12.5 c 0,0.1 0.1,0 0,0 h -6.15 c -0.1,0 0,0.1 0,0 z"
       stroke="#0000ff"
       stroke-width="0.2"
       id="path37"
       style="stroke-width:0.99957574;stroke-dasharray:none" />
    <path
       d="m 236.125,149.8 v -6.25 c 0,-0.1 -0.1,0 0,0 h 6.15 c 0.1,0 0,-0.1 0,0 v 12.5 c 0,0.1 0.1,0 0,0 h -6.15 c -0.1,0 0,0.1 0,0 z"
       stroke="#0000ff"
       stroke-width="0.2"
       id="path38"
       style="stroke-width:0.99957574;stroke-dasharray:none" />
    <path
       d="m 236.125,175.2 v -6.25 c 0,-0.1 -0.1,0 0,0 h 6.15 c 0.1,0 0,-0.1 0,0 v 12.5 c 0,0.1 0.1,0 0,0 h -6.15 c -0.1,0 0,0.1 0,0 z"
       stroke="#0000ff"
       stroke-width="0.2"
       id="path39"
       style="stroke-width:0.99957574;stroke-dasharray:none" />
    <path
       d="m 236.125,200.6 v -6.25 c 0,-0.1 -0.1,0 0,0 h 6.15 c 0.1,0 0,-0.1 0,0 v 12.5 c 0,0.1 0.1,0 0,0 h -6.15 c -0.1,0 0,0.1 0,0 z"
       stroke="#0000ff"
       stroke-width="0.2"
       id="path40"
       style="stroke-width:0.99957574;stroke-dasharray:none" />
    <path
       d="m 236.125,226 v -6.25 c 0,-0.1 -0.1,0 0,0 h 6.15 c 0.1,0 0,-0.1 0,0 v 12.5 c 0,0.1 0.1,0 0,0 h -6.15 c -0.1,0 0,0.1 0,0 z"
       stroke="#0000ff"
       stroke-width="0.2"
       id="path41"
       style="stroke-width:0.99957574;stroke-dasharray:none" />
    <path
       d="m 236.125,251.4 v -6.25 c 0,-0.1 -0.1,0 0,0 h 6.15 c 0.1,0 0,-0.1 0,0 v 12.5 c 0,0.1 0.1,0 0,0 h -6.15 c -0.1,0 0,0.1 0,0 z"
       stroke="#0000ff"
       stroke-width="0.2"
       id="path42"
       style="stroke-width:0.99957574;stroke-dasharray:none" />
    <path
       d="m 236.125,276.8 v -6.25 c 0,-0.1 -0.1,0 0,0 h 6.15 c 0.1,0 0,-0.1 0,0 v 12.5 c 0,0.1 0.1,0 0,0 h -6.15 c -0.1,0 0,0.1 0,0 z"
       stroke="#0000ff"
       stroke-width="0.2"
       id="path43"
       style="stroke-width:0.99957574;stroke-dasharray:none" />
    <path
       d="m 236.125,302.2 v -6.25 c 0,-0.1 -0.1,0 0,0 h 6.15 c 0.1,0 0,-0.1 0,0 v 12.5 c 0,0.1 0.1,0 0,0 h -6.15 c -0.1,0 0,0.1 0,0 z"
       stroke="#0000ff"
       stroke-width="0.2"
       id="path44"
       style="stroke-width:0.99957574;stroke-dasharray:none" />
    <path
       d="m 236.125,327.6 v -6.25 c 0,-0.1 -0.1,0 0,0 h 6.15 c 0.1,0 0,-0.1 0,0 v 12.5 c 0,0.1 0.1,0 0,0 h -6.15 c -0.1,0 0,0.1 0,0 z"
       stroke="#0000ff"
       stroke-width="0.2"
       id="path45"
       style="stroke-width:0.99957574;stroke-dasharray:none" />
  </g>
  <ellipse
     style="fill:none;fill-opacity:1;stroke:#000000;stroke-width:0.198842;stroke-dasharray:none"
     id="path46"
     cx="342.28336"
     cy="112.85971"
     rx="10.701653"
     ry="10.664432" />
  <ellipse
     style="fill:none;stroke:#000000;stroke-width:0.172276;stroke-dasharray:none"
     id="path1"
     cx="275.70309"
     cy="113.15028"
     rx="19.111761"
     ry="18.97603" />
  <circle
     style="fill:none;stroke:#000000;stroke-width:0.179;stroke-dasharray:none"
     id="path1-0"
     cx="275.72949"
     cy="113.27526"
     r="18.138113" />
  <circle
     style="fill:none;stroke:#000000;stroke-width:0.179;stroke-dasharray:none"
     id="path1-6-7"
     cx="408.8736"
     cy="113.56847"
     r="18.138113" />
  <rect
     style="fill:none;stroke:#000000;stroke-width:0.1861"
     id="rect45-3"
     width="117.74683"
     height="31.133553"
     x="283.45288"
     y="47.968182" />
  <path
     style="fill:none;stroke:#000000;stroke-width:0.997;stroke-dasharray:none"
     d="m 305.29122,136.28215 72.45988,-0.38389"
     id="path48" />
  <path
     style="fill:none;stroke:#000000;stroke-width:1.00649;stroke-dasharray:none"
     d="m 305.567,334.18445 73.88565,-0.38369"
     id="path48-9" />
  <path
     style="fill:none;stroke:#000000;stroke-width:0.997;stroke-dasharray:none"
     d="m 377.25265,135.31963 52.30005,58.59452"
     id="path49" />
  <path
     style="fill:none;stroke:#000000;stroke-width:0.997;stroke-dasharray:none"
     d="m 254.5508,276.27824 52.30005,58.59452"
     id="path49-4" />
  <path
     style="fill:none;stroke:#000000;stroke-width:0.997;stroke-dasharray:none"
     d="m 305.81907,135.7543 -51.72964,59.35951"
     id="path50" />
  <path
     style="fill:none;stroke:#000000;stroke-width:0.997;stroke-dasharray:none"
     d="m 430.12939,274.74072 -51.72964,59.35951"
     id="path50-5" />
  <path
     style="fill:none;stroke:#000000;stroke-width:0.997;stroke-dasharray:none"
     d="m 254.43687,193.90271 0.32235,83.26841"
     id="path51" />
  <path
     style="fill:none;stroke:#000000;stroke-width:0.997;stroke-dasharray:none"
     d="m 429.33953,192.92313 0.32235,83.26841"
     id="path51-4" />
  <ellipse
     style="fill:none;stroke:#000000;stroke-width:0.172276;stroke-dasharray:none"
     id="path1-2"
     cx="408.85648"
     cy="113.59104"
     rx="19.111761"
     ry="18.97603" />
</svg>
